<?xml version="1.0" encoding="UTF-8" standalone="no"?>
<svg
   xmlns:dc="http://purl.org/dc/elements/1.1/"
   xmlns:cc="http://creativecommons.org/ns#"
   xmlns:rdf="http://www.w3.org/1999/02/22-rdf-syntax-ns#"
   xmlns:svg="http://www.w3.org/2000/svg"
   xmlns="http://www.w3.org/2000/svg"
   xmlns:xlink="http://www.w3.org/1999/xlink"
   xmlns:sodipodi="http://sodipodi.sourceforge.net/DTD/sodipodi-0.dtd"
   xmlns:inkscape="http://www.inkscape.org/namespaces/inkscape"
   width="48"
   height="36"
   viewBox="0 0 48 36"
   version="1.1"
   id="svg6"
   sodipodi:docname="desktop-qgis.svg"
   inkscape:version="0.92.4 (5da689c313, 2019-01-14)">
  <metadata
     id="metadata12">
    <rdf:RDF>
      <cc:Work
         rdf:about="">
        <dc:format>image/svg+xml</dc:format>
        <dc:type
           rdf:resource="http://purl.org/dc/dcmitype/StillImage" />
        <dc:title />
      </cc:Work>
    </rdf:RDF>
  </metadata>
  <defs
     id="defs10">
    <linearGradient
       id="SVGID_1_"
       gradientUnits="userSpaceOnUse"
       x1="25.711901"
       y1="32.037102"
       x2="25.252501"
       y2="1.8349">
      <stop
         offset="0"
         style="stop-color:#589632"
         id="stop4" />
      <stop
         offset="1"
         style="stop-color:#93B023"
         id="stop6" />
    </linearGradient>
    <linearGradient
       gradientTransform="translate(0.08465253,-74.132065)"
       id="SVGID_2_"
       gradientUnits="userSpaceOnUse"
       x1="16.2764"
       y1="32.117699"
       x2="15.8078"
       y2="1.3113"
       xlink:href="#SVGID_1_">
      <stop
         offset="0"
         style="stop-color:#589632"
         id="stop13" />
      <stop
         offset="1"
         style="stop-color:#93B023"
         id="stop15" />
    </linearGradient>
    <linearGradient
       inkscape:collect="always"
       xlink:href="#SVGID_1_"
       id="linearGradient4559"
       gradientUnits="userSpaceOnUse"
       x1="25.711901"
       y1="32.037102"
       x2="25.252501"
       y2="1.8349" />
    <linearGradient
       inkscape:collect="always"
       xlink:href="#SVGID_2_"
       id="linearGradient4568"
       gradientUnits="userSpaceOnUse"
       gradientTransform="translate(0.08465253,-74.132065)"
       x1="16.2764"
       y1="32.117699"
       x2="15.8078"
       y2="1.3113" />
  </defs>
  <sodipodi:namedview
     pagecolor="#ffffff"
     bordercolor="#666666"
     borderopacity="1"
     objecttolerance="10"
     gridtolerance="10"
     guidetolerance="10"
     inkscape:pageopacity="0"
     inkscape:pageshadow="2"
     inkscape:window-width="1410"
     inkscape:window-height="790"
     id="namedview8"
     showgrid="false"
     inkscape:zoom="6.9532172"
     inkscape:cx="4.614498"
     inkscape:cy="35.647412"
     inkscape:window-x="326"
     inkscape:window-y="115"
     inkscape:window-maximized="0"
     inkscape:current-layer="svg6" />
  <rect
     style="opacity:1;fill:#ffffff;fill-opacity:1;stroke:#3e3e3e;stroke-width:0.761;stroke-linecap:round;stroke-linejoin:miter;stroke-miterlimit:4;stroke-dasharray:none;stroke-dashoffset:2.86783862;stroke-opacity:0.58823529"
     id="rect817"
     width="26.335922"
     height="16.938921"
     x="2.3805389"
     y="5.3025393" />
  <path
     d="M 1.050242,1.4514238 H 32.946034 V 33.347215 H 1.050242 Z"
     id="path2"
     inkscape:connector-curvature="0"
     style="fill:none;stroke-width:1.32899129" />
  <path
     style="fill:#dcdcdc;fill-opacity:0.47058824;stroke:none;stroke-width:2.5999999;stroke-miterlimit:4;stroke-dasharray:none;stroke-opacity:1"
     d="m 34.65,4.9999992 c -0.360101,0 -0.65,0.2898999 -0.65,0.65 V 30.349999 C 34,30.710099 34.289899,31 34.65,31 H 46.349999 C 46.710099,31 47,30.710099 47,30.349999 V 5.6499992 c 0,-0.3601001 -0.289901,-0.65 -0.650001,-0.65 z M 36.561913,8 h 7.876172 c 0.681279,0 1.261914,0.7806367 1.261914,1.4619154 v 0.076164 C 45.699999,10.219364 45.119364,11 44.438085,11 H 36.561913 C 35.880634,11 35.299999,10.219364 35.299999,9.5380846 V 9.4619206 C 35.299999,8.780637 35.880634,8 36.561913,8 Z m 4.047266,12.203905 c 1.133323,2e-6 2.06172,0.925859 2.06172,2.05918 0,1.133322 -0.928397,2.061719 -2.06172,2.061719 -1.133323,0 -2.059179,-0.928397 -2.059179,-2.061719 0,-1.133321 0.925856,-2.05918 2.059179,-2.05918 z m 0,0.756642 c -0.724673,0 -1.302539,0.577867 -1.302539,1.302538 0,0.724672 0.577866,1.305078 1.302539,1.305078 0.724672,0 1.305079,-0.580406 1.305079,-1.305078 0,-0.724671 -0.580407,-1.302538 -1.305079,-1.302538 z"
     id="rect4526"
     inkscape:connector-curvature="0"
     sodipodi:nodetypes="sssssssssssssssssscssscsssss" />
  <g
     id="g4557"
     transform="matrix(0.42882091,0,0,0.42882091,8.486305,39.629186)">
    <g
       id="g4566">
      <polygon
         transform="translate(0.08465253,-74.132065)"
         style="fill:#ee7913"
         points="13.613,13.625 13.613,17.625 17.613,22.082 17.613,17.625 21.97,17.612 17.969,13.625 "
         id="polygon2-3" />
      <polygon
         transform="translate(0.08465253,-74.132065)"
         style="fill:url(#linearGradient4559)"
         points="19.613,23.958 26.853,31.625 31.613,31.625 31.613,27.222 23.989,19.624 19.613,19.625 "
         id="polygon9" />
      <polygon
         transform="translate(0.08465253,-74.132065)"
         style="fill:#f0e64a"
         points="17.613,17.625 17.613,22.082 19.613,23.958 19.613,19.625 23.989,19.624 21.97,17.612 "
         id="polygon11" />
      <path
         inkscape:connector-curvature="0"
         style="fill:url(#linearGradient4568);fill-opacity:1"
         d="m 18.084653,-48.947065 c -0.682,0.157 -1.17,0.195 -1.901,0.195 -5.229,0 -9.6770005,-4.3 -9.6770005,-9.876 0,-5.576 4.3990005,-9.781 9.6770005,-9.781 5.278,0 9.482,4.205 9.482,9.781 0,0.907 -0.155,1.961 -0.364,2.788001 l 4.883,4.657999 c 1.248,-2.187 1.946,-4.728999 1.946,-7.482 0,-8.594 -6.858,-15.028 -16.044,-15.028 -9.1440005,-0.001 -16.00200047,6.391 -16.00200047,15.027 0,8.678 6.85799997,15.197 16.00100047,15.197 2.361,0 4.224,-0.3 6.2,-1.09 z"
         id="path18" />
      <polygon
         transform="translate(0.08465253,-74.132065)"
         style="opacity:0.15;fill:#ffffff"
         points="17.969,13.625 31.613,27.222 31.613,31.625 13.613,13.625 "
         id="polygon20" />
    </g>
  </g>
  <path
     d="M 29.044664,4 H 2.0609416 C 1.3880272,4 1.0005265,4.075537 1.0005265,4.9344156 V 22.646004 c 0,1.274217 -0.05303,2.080782 0.9053363,2.080782 H 12.338596 v 4.447217 H 9.206222 V 31 H 21.73576 v -1.825997 h -3.132396 v -4.447217 h 9.775017 c 1.380019,0 1.563052,-0.506878 1.563052,-2.099784 V 4.8968024 C 29.941433,4.364254 29.634101,4 29.044664,4 Z m 0,18.646959 H 1.9692266 V 4.8968024 H 29.044664 Z"
     id="path4-36"
     inkscape:connector-curvature="0"
     style="fill:#f0f0f0;fill-opacity:0.58823529;stroke-width:1.40560853"
     sodipodi:nodetypes="sssssccccccccssssccccc" />
</svg>
