<?xml version="1.0" encoding="UTF-8" standalone="no"?>
<!-- Created with Inkscape (http://www.inkscape.org/) -->

<svg
   xmlns:dc="http://purl.org/dc/elements/1.1/"
   xmlns:cc="http://creativecommons.org/ns#"
   xmlns:rdf="http://www.w3.org/1999/02/22-rdf-syntax-ns#"
   xmlns:svg="http://www.w3.org/2000/svg"
   xmlns="http://www.w3.org/2000/svg"
   xmlns:sodipodi="http://sodipodi.sourceforge.net/DTD/sodipodi-0.dtd"
   xmlns:inkscape="http://www.inkscape.org/namespaces/inkscape"
   width="128"
   height="52"
   viewBox="0 0 33.866665 13.758333"
   version="1.1"
   id="svg3957"
   inkscape:version="0.92.4 (5da689c313, 2019-01-14)"
   sodipodi:docname="timeline-settings.svg">
  <defs
     id="defs3951" />
  <sodipodi:namedview
     id="base"
     pagecolor="#ffffff"
     bordercolor="#666666"
     borderopacity="1.0"
     inkscape:pageopacity="0.0"
     inkscape:pageshadow="2"
     inkscape:zoom="7.9195959"
     inkscape:cx="46.500329"
     inkscape:cy="22.653771"
     inkscape:document-units="px"
     inkscape:current-layer="layer1"
     showgrid="false"
     units="px"
     inkscape:window-width="1920"
     inkscape:window-height="1016"
     inkscape:window-x="0"
     inkscape:window-y="34"
     inkscape:window-maximized="1" />
  <metadata
     id="metadata3954">
    <rdf:RDF>
      <cc:Work
         rdf:about="">
        <dc:format>image/svg+xml</dc:format>
        <dc:type
           rdf:resource="http://purl.org/dc/dcmitype/StillImage" />
        <dc:title></dc:title>
      </cc:Work>
    </rdf:RDF>
  </metadata>
  <g
     inkscape:label="Layer 1"
     inkscape:groupmode="layer"
     id="layer1"
     transform="translate(0,-283.24165)">
    <path
       style="opacity:1;fill:#ffffff;fill-opacity:1;stroke:none;stroke-width:0.58516544;stroke-linecap:round;stroke-linejoin:round;stroke-miterlimit:4;stroke-dasharray:0.58516542, 1.17033085;stroke-dashoffset:0;stroke-opacity:1"
       d="m 23.283332,290.12082 a 6.3499998,6.3499998 0 0 1 -6.35,6.35 6.3499998,6.3499998 0 0 1 -6.349999,-6.35 6.3499998,6.3499998 0 0 1 6.349999,-6.35 6.3499998,6.3499998 0 0 1 6.35,6.35 z"
       id="bg"
       inkscape:connector-curvature="0"
       inkscape:label="#path818" />
    <path
       inkscape:connector-curvature="0"
       id="path825"
       d="m 22.059635,290.12082 a 5.1263022,5.1263018 0 0 1 -5.126302,5.1263 5.1263022,5.1263018 0 0 1 -5.126302,-5.1263 5.1263022,5.1263018 0 0 1 5.126302,-5.1263 5.1263022,5.1263018 0 0 1 5.126302,5.1263 z"
       style="opacity:1;fill:#00a6e3;fill-opacity:1;stroke:none;stroke-width:0.4723992;stroke-linecap:round;stroke-linejoin:round;stroke-miterlimit:4;stroke-dasharray:0.47239918, 0.94479835;stroke-dashoffset:0;stroke-opacity:1" />
    <g
       style="fill:#ffffff;fill-opacity:1"
       id="g10921"
       transform="matrix(1.6053874,0,0,1.6053874,-76.791939,-183.65905)">
      <g
         id="use10919"
         transform="matrix(0.26458333,0,0,0.26458333,55.999996,297.49997)">
        <path
           inkscape:connector-curvature="0"
           id="path4516"
           d="m 7.125,-7.125 c 0.519531,0.511719 1.144531,0.765625 1.875,0.765625 0.726562,0 1.347656,-0.253906 1.859375,-0.765625 0.519531,-0.519531 0.78125,-1.144531 0.78125,-1.875 0,-0.726562 -0.261719,-1.347656 -0.78125,-1.859375 -0.511719,-0.519531 -1.132813,-0.78125 -1.859375,-0.78125 -0.730469,0 -1.355469,0.261719 -1.875,0.78125 C 6.613281,-10.347656 6.359375,-9.726562 6.359375,-9 c 0,0.730469 0.253906,1.355469 0.765625,1.875 z m 7.46875,-1.140625 1.578125,1.234375 c 0.164063,0.117188 0.191406,0.277344 0.07813,0.484375 l -1.51563,2.609375 c -0.09375,0.167969 -0.246094,0.214844 -0.453125,0.140625 l -1.875,-0.734375 c -0.492188,0.34375 -0.914062,0.589844 -1.265625,0.734375 l -0.28125,1.96875 c -0.04297,0.210937 -0.15625,0.3125 -0.34375,0.3125 h -3.03125 c -0.1875,0 -0.304687,-0.101563 -0.34375,-0.3125 l -0.28125,-1.96875 C 6.410156,-3.984375 5.988281,-4.226562 5.59375,-4.53125 l -1.859375,0.734375 c -0.21875,0.074219 -0.375,0.027344 -0.46875,-0.140625 l -1.5,-2.609375 c -0.125,-0.207031 -0.105469,-0.367187 0.0625,-0.484375 L 3.40625,-8.265625 C 3.382812,-8.429688 3.375,-8.675781 3.375,-9 c 0,-0.332031 0.00781,-0.578125 0.03125,-0.734375 L 1.828125,-10.96875 c -0.167969,-0.113281 -0.1875,-0.28125 -0.0625,-0.5 l 1.5,-2.59375 c 0.09375,-0.164062 0.25,-0.210938 0.46875,-0.140625 l 1.859375,0.734375 c 0.488281,-0.351562 0.910156,-0.597656 1.265625,-0.734375 l 0.28125,-1.96875 c 0.039063,-0.207031 0.15625,-0.3125 0.34375,-0.3125 h 3.03125 c 0.1875,0 0.300781,0.105469 0.34375,0.3125 l 0.28125,1.96875 c 0.445313,0.1875 0.867187,0.433594 1.265625,0.734375 l 1.875,-0.734375 c 0.207031,-0.07031 0.359375,-0.02344 0.453125,0.140625 L 16.25,-11.46875 c 0.113281,0.21875 0.08594,0.386719 -0.07813,0.5 l -1.57812,1.234375 C 14.613281,-9.578125 14.625,-9.332031 14.625,-9 c 0,0.324219 -0.01172,0.570312 -0.03125,0.734375 z m 0,0"
           style="stroke:none" />
      </g>
    </g>
    <path
       inkscape:connector-curvature="0"
       id="mask"
       d="m 23.283332,290.12082 a 6.3499998,6.3499998 0 0 1 -6.35,6.35 6.3499998,6.3499998 0 0 1 -6.349999,-6.35 6.3499998,6.3499998 0 0 1 6.349999,-6.35 6.3499998,6.3499998 0 0 1 6.35,6.35 z"
       style="opacity:1;fill:#444444;fill-opacity:0.3;stroke:none;stroke-width:0.58516544;stroke-linecap:round;stroke-linejoin:round;stroke-miterlimit:4;stroke-dasharray:0.58516542, 1.17033085;stroke-dashoffset:0;stroke-opacity:1"
       inkscape:label="#path819" />
  </g>
</svg>
