<?xml version="1.0" encoding="UTF-8" standalone="no"?>
<!-- Created with Inkscape (http://www.inkscape.org/) -->

<svg
   xmlns:dc="http://purl.org/dc/elements/1.1/"
   xmlns:cc="http://creativecommons.org/ns#"
   xmlns:rdf="http://www.w3.org/1999/02/22-rdf-syntax-ns#"
   xmlns:svg="http://www.w3.org/2000/svg"
   xmlns="http://www.w3.org/2000/svg"
   xmlns:sodipodi="http://sodipodi.sourceforge.net/DTD/sodipodi-0.dtd"
   xmlns:inkscape="http://www.inkscape.org/namespaces/inkscape"
   width="128"
   height="52"
   viewBox="0 0 33.866665 13.758333"
   version="1.1"
   id="svg3957"
   inkscape:version="0.92.4 (5da689c313, 2019-01-14)"
   sodipodi:docname="timeline-publish.svg">
  <defs
     id="defs3951" />
  <sodipodi:namedview
     id="base"
     pagecolor="#ffffff"
     bordercolor="#666666"
     borderopacity="1.0"
     inkscape:pageopacity="0.0"
     inkscape:pageshadow="2"
     inkscape:zoom="5.6"
     inkscape:cx="35.660731"
     inkscape:cy="47.057702"
     inkscape:document-units="px"
     inkscape:current-layer="layer1"
     showgrid="false"
     units="px"
     inkscape:window-width="1118"
     inkscape:window-height="802"
     inkscape:window-x="590"
     inkscape:window-y="106"
     inkscape:window-maximized="0" />
  <metadata
     id="metadata3954">
    <rdf:RDF>
      <cc:Work
         rdf:about="">
        <dc:format>image/svg+xml</dc:format>
        <dc:type
           rdf:resource="http://purl.org/dc/dcmitype/StillImage" />
        <dc:title></dc:title>
      </cc:Work>
    </rdf:RDF>
  </metadata>
  <g
     inkscape:label="Layer 1"
     inkscape:groupmode="layer"
     id="layer1"
     transform="translate(0,-283.24165)">
    <path
       sodipodi:nodetypes="cccc"
       inkscape:connector-curvature="0"
       id="path823"
       d="M 10.359727,291.10895 H 2.7881778 c -1.61109,-0.21403 -2.44282677,-0.92389 -2.51171777,-2.84244 v -4.72238"
       style="fill:none;stroke:#00a6e3;stroke-width:0.52916664;stroke-linecap:round;stroke-linejoin:round;stroke-miterlimit:4;stroke-dasharray:0.52916665, 1.05833329;stroke-dashoffset:1.48166668;stroke-opacity:1" />
    <path
       style="fill:none;stroke:#00a6e3;stroke-width:0.52916665;stroke-linecap:round;stroke-linejoin:round;stroke-miterlimit:4;stroke-dasharray:0.52916665,1.05833329;stroke-dashoffset:1.00541663;stroke-opacity:1"
       d="m 23.471162,291.10895 h 5.039847 c 1.61109,-0.21403 2.773556,-0.92389 2.842447,-2.84244 v -4.76508"
       id="path11932"
       inkscape:connector-curvature="0"
       sodipodi:nodetypes="cccc" />
    <path
       style="opacity:1;fill:#ffffff;fill-opacity:1;stroke:none;stroke-width:0.58516544;stroke-linecap:round;stroke-linejoin:round;stroke-miterlimit:4;stroke-dasharray:0.58516543, 1.17033087;stroke-dashoffset:0;stroke-opacity:1"
       d="m 23.283332,290.12938 a 6.3499998,6.3499998 0 0 1 -6.35,6.35 6.3499998,6.3499998 0 0 1 -6.349999,-6.35 6.3499998,6.3499998 0 0 1 6.349999,-6.35 6.3499998,6.3499998 0 0 1 6.35,6.35 z"
       id="path818"
       inkscape:connector-curvature="0" />
    <path
       inkscape:connector-curvature="0"
       id="path825"
       d="m 22.059635,290.12938 a 5.1263022,5.126302 0 0 1 -5.126302,5.1263 5.1263022,5.126302 0 0 1 -5.126302,-5.1263 5.1263022,5.126302 0 0 1 5.126302,-5.1263 5.1263022,5.126302 0 0 1 5.126302,5.1263 z"
       style="opacity:1;fill:#00a6e3;fill-opacity:1;stroke:none;stroke-width:0.47239923;stroke-linecap:round;stroke-linejoin:round;stroke-miterlimit:4;stroke-dasharray:0.47239919, 0.94479836;stroke-dashoffset:0;stroke-opacity:1" />
    <g
       style="fill:#ffffff;fill-opacity:1"
       id="g10959"
       transform="matrix(1.676965,0,0,1.676965,-80.969973,-767.06072)">
      <g
         id="use10957"
         transform="matrix(0.26458333,0,0,0.26458333,55.999996,632.79995)">
        <path
           inkscape:connector-curvature="0"
           id="path827"
           d="m 13.4375,-4.953125 c 1.050781,-1.125 1.578125,-2.472656 1.578125,-4.046875 0,-1.238281 -0.351563,-2.363281 -1.046875,-3.375 -0.6875,-1.007812 -1.59375,-1.738281 -2.71875,-2.1875 v 0.328125 c 0,0.398437 -0.152344,0.742187 -0.453125,1.03125 -0.304687,0.292969 -0.65625,0.4375 -1.0625,0.4375 H 8.265625 V -11.25 c 0,0.210938 -0.078125,0.386719 -0.234375,0.53125 -0.148438,0.136719 -0.328125,0.203125 -0.546875,0.203125 H 6.015625 V -9 h 4.5 c 0.207031,0 0.378906,0.074219 0.515625,0.21875 0.144531,0.136719 0.21875,0.308594 0.21875,0.515625 v 2.25 h 0.734375 c 0.707031,0 1.191406,0.355469 1.453125,1.0625 z M 8.265625,-3.0625 V -4.5 c -0.398437,0 -0.75,-0.148438 -1.0625,-0.453125 C 6.898438,-5.265625 6.75,-5.617188 6.75,-6.015625 V -6.75 l -3.578125,-3.59375 c -0.125,0.46875 -0.1875,0.917969 -0.1875,1.34375 0,1.523438 0.507813,2.84375 1.53125,3.96875 1.019531,1.125 2.269531,1.78125 3.75,1.96875 z m -4.5625,-11.21875 C 5.171875,-15.75 6.9375,-16.484375 9,-16.484375 c 2.0625,0 3.820312,0.734375 5.28125,2.203125 1.46875,1.460938 2.203125,3.21875 2.203125,5.28125 0,2.0625 -0.734375,3.828125 -2.203125,5.296875 -1.460938,1.460937 -3.21875,2.1875 -5.28125,2.1875 -2.0625,0 -3.828125,-0.726563 -5.296875,-2.1875 C 2.242188,-5.171875 1.515625,-6.9375 1.515625,-9 c 0,-2.0625 0.726563,-3.820312 2.1875,-5.28125 z m 0,0"
           style="stroke:none" />
      </g>
    </g>
    <g
       id="g10951"
       transform="matrix(0.34141898,0,0,0.34141898,-42.137962,202.1312)">
      <path
         inkscape:connector-curvature="0"
         id="path10927"
         d="m 131.02344,259.57812 h 16.43359 c 0.20703,0 0.37891,0.0742 0.52344,0.21875 0.14453,0.14453 0.21484,0.31641 0.21484,0.51953 v 0.44922 c 0,0.20313 -0.0703,0.37891 -0.21484,0.52344 -0.14453,0.14062 -0.31641,0.21484 -0.52344,0.21484 h -16.43359 c -0.20313,0 -0.375,-0.0742 -0.51953,-0.21484 -0.14453,-0.14453 -0.21485,-0.32031 -0.21485,-0.52344 v -0.44922 c 0,-0.20312 0.0703,-0.375 0.21485,-0.51953 0.14453,-0.14453 0.3164,-0.21875 0.51953,-0.21875 z m 0,0"
         style="fill:#00a6e3;fill-opacity:1;fill-rule:nonzero;stroke:#ffffff;stroke-width:0.01875;stroke-linecap:butt;stroke-linejoin:miter;stroke-miterlimit:4;stroke-opacity:1" />
      <path
         inkscape:connector-curvature="0"
         id="path10929"
         d="m 136.30078,259 h 6.01172 v 3.4375 h -6.01172 z m 0,0"
         style="fill:#00a6e3;fill-opacity:1;fill-rule:nonzero;stroke:none" />
      <path
         inkscape:connector-curvature="0"
         id="path10931"
         d="m 138.34375,256.41406 h 1.82812 v 3.01563 h -1.82812 z m 0,0"
         style="fill:#00a6e3;fill-opacity:1;fill-rule:nonzero;stroke:none" />
      <path
         inkscape:connector-curvature="0"
         id="path10933"
         d="m 131.49219,250.86719 h 15.55078 c 0.15625,0 0.30859,0.0312 0.44922,0.0898 0.14453,0.0625 0.27343,0.14453 0.38281,0.25781 0.11328,0.10938 0.19531,0.23828 0.25781,0.38282 0.0586,0.14453 0.0898,0.29296 0.0898,0.44921 v 2.65625 c 0,0.15625 -0.0312,0.30469 -0.0898,0.44922 -0.0625,0.14453 -0.14453,0.27344 -0.25781,0.38282 -0.10938,0.10937 -0.23828,0.19531 -0.38281,0.2539 -0.14063,0.0625 -0.29297,0.0898 -0.44922,0.0898 h -15.55078 c -0.15625,0 -0.30469,-0.0273 -0.44922,-0.0898 -0.14453,-0.0586 -0.27344,-0.14453 -0.38281,-0.2539 -0.10938,-0.10938 -0.19532,-0.23829 -0.25782,-0.38282 -0.0586,-0.14453 -0.0859,-0.29297 -0.0859,-0.44922 v -2.65625 c 0,-0.15625 0.0273,-0.30468 0.0859,-0.44921 0.0625,-0.14454 0.14844,-0.27344 0.25782,-0.38282 0.10937,-0.11328 0.23828,-0.19531 0.38281,-0.25781 0.14453,-0.0586 0.29297,-0.0898 0.44922,-0.0898 z m 0,0"
         style="fill:#00a6e3;fill-opacity:1;fill-rule:nonzero;stroke:none" />
      <path
         inkscape:connector-curvature="0"
         id="path10935"
         d="m 133.07406,252.84769 c 0,0.23861 -0.0851,0.44542 -0.2553,0.61511 -0.17019,0.16968 -0.37762,0.25981 -0.61696,0.25981 -0.24466,0 -0.45208,-0.0901 -0.62228,-0.25981 -0.1702,-0.16969 -0.2553,-0.3765 -0.2553,-0.61511 0,-0.24392 0.0851,-0.45072 0.2553,-0.6204 0.1702,-0.16968 0.37762,-0.25452 0.62228,-0.25452 0.23934,0 0.44677,0.0848 0.61696,0.25452 0.1702,0.16968 0.2553,0.37648 0.2553,0.6204 z m 0,0"
         style="fill:#ffffff;fill-opacity:1;fill-rule:nonzero;stroke:none;stroke-width:1.35951841" />
      <path
         inkscape:connector-curvature="0"
         id="path10937"
         d="m 141.53125,253.41406 h 4.41797 v 1.42578 h -4.41797 z m 0,0"
         style="fill:#ffffff;fill-opacity:1;fill-rule:nonzero;stroke:#ffffff;stroke-width:0.009;stroke-linecap:butt;stroke-linejoin:miter;stroke-miterlimit:4;stroke-opacity:1" />
      <path
         inkscape:connector-curvature="0"
         id="path10939"
         d="m 131.49219,245.26953 h 15.55078 c 0.15625,0 0.30859,0.0312 0.44922,0.0898 0.14453,0.0586 0.27343,0.14454 0.38281,0.25391 0.11328,0.11328 0.19531,0.23828 0.25781,0.38281 0.0586,0.14453 0.0898,0.29688 0.0898,0.45313 v 2.65234 c 0,0.15625 -0.0312,0.3086 -0.0898,0.45313 -0.0625,0.14453 -0.14453,0.26953 -0.25781,0.38281 -0.10938,0.10937 -0.23828,0.19531 -0.38281,0.25391 -0.14063,0.0586 -0.29297,0.0898 -0.44922,0.0898 h -15.55078 c -0.15625,0 -0.30469,-0.0312 -0.44922,-0.0898 -0.14453,-0.0586 -0.27344,-0.14454 -0.38281,-0.25391 -0.10938,-0.11328 -0.19532,-0.23828 -0.25782,-0.38281 -0.0586,-0.14453 -0.0859,-0.29688 -0.0859,-0.45313 v -2.65234 c 0,-0.15625 0.0273,-0.3086 0.0859,-0.45313 0.0625,-0.14453 0.14844,-0.26953 0.25782,-0.38281 0.10937,-0.10937 0.23828,-0.19531 0.38281,-0.25391 0.14453,-0.0586 0.29297,-0.0898 0.44922,-0.0898 z m 0,0"
         style="fill:#00a6e3;fill-opacity:1;fill-rule:nonzero;stroke:none" />
      <path
         inkscape:connector-curvature="0"
         id="path10941"
         d="m 133.07417,247.24872 c 0,0.23937 -0.0851,0.44681 -0.25532,0.61702 -0.17021,0.17021 -0.37764,0.25531 -0.617,0.25531 -0.24467,0 -0.45211,-0.0851 -0.62232,-0.25531 -0.17021,-0.17021 -0.25531,-0.37765 -0.25531,-0.61702 0,-0.24466 0.0851,-0.45211 0.25531,-0.62232 0.17021,-0.17021 0.37765,-0.25531 0.62232,-0.25531 0.23936,0 0.44679,0.0851 0.617,0.25531 0.17021,0.17021 0.25532,0.37766 0.25532,0.62232 z m 0,0"
         style="fill:#ffffff;fill-opacity:1;fill-rule:nonzero;stroke:none;stroke-width:1.36166644" />
      <path
         inkscape:connector-curvature="0"
         id="path10943"
         d="m 141.53125,247.8125 h 4.41797 v 1.42968 h -4.41797 z m 0,0"
         style="fill:#ffffff;fill-opacity:1;fill-rule:nonzero;stroke:#ffffff;stroke-width:0.009;stroke-linecap:butt;stroke-linejoin:miter;stroke-miterlimit:4;stroke-opacity:1" />
      <path
         inkscape:connector-curvature="0"
         id="path10945"
         d="m 131.49219,239.55469 h 15.55078 c 0.15625,0 0.30859,0.0312 0.44922,0.0898 0.14453,0.0586 0.27343,0.14453 0.38281,0.25391 0.11328,0.11328 0.19531,0.23828 0.25781,0.38281 0.0586,0.14453 0.0898,0.29687 0.0898,0.45312 v 2.65235 c 0,0.15625 -0.0312,0.30859 -0.0898,0.45312 -0.0625,0.14453 -0.14453,0.26953 -0.25781,0.38282 -0.10938,0.10937 -0.23828,0.19531 -0.38281,0.2539 -0.14063,0.0586 -0.29297,0.0898 -0.44922,0.0898 h -15.55078 c -0.15625,0 -0.30469,-0.0312 -0.44922,-0.0898 -0.14453,-0.0586 -0.27344,-0.14453 -0.38281,-0.2539 -0.10938,-0.11329 -0.19532,-0.23829 -0.25782,-0.38282 -0.0586,-0.14453 -0.0859,-0.29687 -0.0859,-0.45312 v -2.65235 c 0,-0.15625 0.0273,-0.30859 0.0859,-0.45312 0.0625,-0.14453 0.14844,-0.26953 0.25782,-0.38281 0.10937,-0.10938 0.23828,-0.19532 0.38281,-0.25391 0.14453,-0.0586 0.29297,-0.0898 0.44922,-0.0898 z m 0,0"
         style="fill:#00a6e3;fill-opacity:1;fill-rule:nonzero;stroke:none" />
      <path
         inkscape:connector-curvature="0"
         id="path10947"
         d="m 133.07417,241.52856 c 0,0.24468 -0.0851,0.45213 -0.25532,0.62234 -0.17021,0.17021 -0.37764,0.25531 -0.617,0.25531 -0.24467,0 -0.45211,-0.0851 -0.62232,-0.25531 -0.17021,-0.17021 -0.25531,-0.37766 -0.25531,-0.62234 0,-0.23935 0.0851,-0.44679 0.25531,-0.617 0.17021,-0.17021 0.37765,-0.25531 0.62232,-0.25531 0.23936,0 0.44679,0.0851 0.617,0.25531 0.17021,0.17021 0.25532,0.37765 0.25532,0.617 z m 0,0"
         style="fill:#ffffff;fill-opacity:1;fill-rule:nonzero;stroke:none;stroke-width:1.36166644" />
      <path
         inkscape:connector-curvature="0"
         id="path10949"
         d="m 141.53125,242.09765 h 4.41797 v 1.42969 h -4.41797 z m 0,0"
         style="fill:#ffffff;fill-opacity:1;fill-rule:nonzero;stroke:#ffffff;stroke-width:0.009;stroke-linecap:butt;stroke-linejoin:miter;stroke-miterlimit:4;stroke-opacity:1" />
    </g>
    <path
       inkscape:connector-curvature="0"
       id="mask"
       d="m 23.283332,290.12938 a 6.3499998,6.3499998 0 0 1 -6.35,6.35 6.3499998,6.3499998 0 0 1 -6.349999,-6.35 6.3499998,6.3499998 0 0 1 6.349999,-6.35 6.3499998,6.3499998 0 0 1 6.35,6.35 z"
       style="opacity:1;fill:#444444;fill-opacity:0.3;stroke:none;stroke-width:0.58516544;stroke-linecap:round;stroke-linejoin:round;stroke-miterlimit:4;stroke-dasharray:0.58516542, 1.17033085;stroke-dashoffset:0;stroke-opacity:1"
       inkscape:label="#path819" />
  </g>
</svg>
