<?xml version="1.0" encoding="UTF-8" standalone="no"?>
<!-- Created with Inkscape (http://www.inkscape.org/) -->

<svg
   xmlns:dc="http://purl.org/dc/elements/1.1/"
   xmlns:cc="http://creativecommons.org/ns#"
   xmlns:rdf="http://www.w3.org/1999/02/22-rdf-syntax-ns#"
   xmlns:svg="http://www.w3.org/2000/svg"
   xmlns="http://www.w3.org/2000/svg"
   xmlns:sodipodi="http://sodipodi.sourceforge.net/DTD/sodipodi-0.dtd"
   xmlns:inkscape="http://www.inkscape.org/namespaces/inkscape"
   width="128"
   height="52"
   viewBox="0 0 33.866665 13.758334"
   version="1.1"
   id="svg2202"
   inkscape:version="0.92.4 (5da689c313, 2019-01-14)"
   sodipodi:docname="timeline-checkin.svg">
  <defs
     id="defs2196" />
  <sodipodi:namedview
     id="base"
     pagecolor="#ffffff"
     bordercolor="#666666"
     borderopacity="1.0"
     inkscape:pageopacity="0.0"
     inkscape:pageshadow="2"
     inkscape:zoom="7.9195959"
     inkscape:cx="38.402806"
     inkscape:cy="24.237327"
     inkscape:document-units="mm"
     inkscape:current-layer="layer1"
     showgrid="false"
     units="px"
     inkscape:window-width="1195"
     inkscape:window-height="657"
     inkscape:window-x="492"
     inkscape:window-y="191"
     inkscape:window-maximized="0" />
  <metadata
     id="metadata2199">
    <rdf:RDF>
      <cc:Work
         rdf:about="">
        <dc:format>image/svg+xml</dc:format>
        <dc:type
           rdf:resource="http://purl.org/dc/dcmitype/StillImage" />
        <dc:title />
      </cc:Work>
    </rdf:RDF>
  </metadata>
  <g
     inkscape:label="Layer 1"
     inkscape:groupmode="layer"
     id="layer1"
     transform="translate(0,-283.24166)">
    <path
       style="opacity:1;fill:#ffffff;fill-opacity:1;stroke:none;stroke-width:0.58516544;stroke-linecap:round;stroke-linejoin:round;stroke-miterlimit:4;stroke-dasharray:0.58516544, 1.17033088;stroke-dashoffset:0;stroke-opacity:1"
       d="m 23.283333,290.12083 a 6.35,6.35 0 0 1 -6.35,6.35 6.35,6.35 0 0 1 -6.349999,-6.35 6.35,6.35 0 0 1 6.349999,-6.35 6.35,6.35 0 0 1 6.35,6.35 z"
       id="bg"
       inkscape:connector-curvature="0"
       inkscape:label="#path818" />
    <path
       style="fill:#9ab023;fill-opacity:1;fill-rule:nonzero;stroke:none;stroke-width:0.32564065"
       d="m 22.062179,290.12066 c 0,0.33711 -0.03304,0.67037 -0.09794,1.0011 -0.06618,0.32945 -0.164095,0.65001 -0.292569,0.96163 -0.128474,0.31169 -0.286209,0.60677 -0.474471,0.88663 -0.186987,0.27986 -0.399414,0.53933 -0.637282,0.7772 -0.237876,0.23789 -0.497371,0.4503 -0.77722,0.63729 -0.279849,0.18829 -0.574956,0.34599 -0.886605,0.47449 -0.311649,0.12846 -0.632197,0.22641 -0.961661,0.29256 -0.330729,0.0649 -0.663995,0.0979 -1.001085,0.0979 -0.337089,0 -0.670365,-0.033 -1.001094,-0.0979 -0.329455,-0.0661 -0.650002,-0.1641 -0.961661,-0.29256 -0.311648,-0.1285 -0.606756,-0.28621 -0.886605,-0.47449 -0.279852,-0.18699 -0.539347,-0.3994 -0.777214,-0.63729 -0.237868,-0.23787 -0.450295,-0.49734 -0.637292,-0.7772 -0.188261,-0.27986 -0.345987,-0.57494 -0.474461,-0.88663 -0.128483,-0.31162 -0.22643,-0.63219 -0.292569,-0.96163 -0.06489,-0.33072 -0.09795,-0.66399 -0.09795,-1.0011 0,-0.3371 0.03305,-0.67036 0.09795,-1.00108 0.06619,-0.32944 0.164086,-0.65001 0.292569,-0.96166 0.128474,-0.31166 0.2862,-0.60676 0.474461,-0.88661 0.186997,-0.27985 0.399424,-0.53932 0.637292,-0.7772 0.237867,-0.23789 0.497362,-0.4503 0.777211,-0.63729 0.279849,-0.18828 0.574957,-0.34599 0.886605,-0.47449 0.311659,-0.12846 0.632206,-0.2264 0.961661,-0.29255 0.330729,-0.0649 0.664005,-0.0979 1.001094,-0.0979 0.33709,0 0.670356,0.033 1.001085,0.0979 0.329464,0.0661 0.650012,0.16409 0.961661,0.29255 0.311649,0.1285 0.606756,0.28622 0.886605,0.47449 0.279849,0.18699 0.539344,0.3994 0.77722,0.63729 0.237868,0.23788 0.450295,0.49735 0.637282,0.7772 0.188262,0.27985 0.345997,0.57495 0.474471,0.88661 0.128474,0.31165 0.226422,0.63222 0.292569,0.96166 0.06489,0.33072 0.09794,0.66398 0.09794,1.00108 z m 0,0"
       id="path10891"
       inkscape:connector-curvature="0" />
    <path
       inkscape:connector-curvature="0"
       d="M 19.076693,287.39464 H 17.79731 c -0.128557,-0.35505 -0.46524,-0.61217 -0.863132,-0.61217 -0.3979,0 -0.734574,0.25712 -0.863131,0.61217 h -1.279383 c -0.336683,0 -0.612157,0.27546 -0.612157,0.61212 v 4.28505 c 0,0.33667 0.275474,0.61214 0.612157,0.61214 h 4.285029 c 0.336683,0 0.612147,-0.27547 0.612147,-0.61214 v -4.28505 c 0,-0.33666 -0.275464,-0.61212 -0.612147,-0.61212 z m -2.142515,0 c 0.168341,0 0.306073,0.1377 0.306073,0.30606 0,0.16832 -0.137732,0.30606 -0.306073,0.30606 -0.168341,0 -0.306073,-0.13774 -0.306073,-0.30606 0,-0.16836 0.137732,-0.30606 0.306073,-0.30606 z m -0.612147,4.28501 -1.224303,-1.22428 0.431566,-0.43158 0.792737,0.78969 2.017022,-2.01703 0.431567,0.43461 z"
       id="icon"
       style="fill:#ffffff;fill-opacity:1;stroke-width:0.30607399"
       inkscape:label="#path4" />
    <path
       inkscape:connector-curvature="0"
       id="mask"
       d="m 23.283333,290.12083 a 6.35,6.35 0 0 1 -6.35,6.35 6.35,6.35 0 0 1 -6.349999,-6.35 6.35,6.35 0 0 1 6.349999,-6.35 6.35,6.35 0 0 1 6.35,6.35 z"
       style="opacity:1;fill:#444444;fill-opacity:0.3;stroke:none;stroke-width:0.58516544;stroke-linecap:round;stroke-linejoin:round;stroke-miterlimit:4;stroke-dasharray:0.58516544, 1.17033089;stroke-dashoffset:0;stroke-opacity:1"
       inkscape:label="#path819" />
  </g>
</svg>
