<?xml version="1.0" encoding="UTF-8" standalone="no"?>
<!-- Created with Inkscape (http://www.inkscape.org/) -->

<svg
   xmlns:dc="http://purl.org/dc/elements/1.1/"
   xmlns:cc="http://creativecommons.org/ns#"
   xmlns:rdf="http://www.w3.org/1999/02/22-rdf-syntax-ns#"
   xmlns:svg="http://www.w3.org/2000/svg"
   xmlns="http://www.w3.org/2000/svg"
   xmlns:sodipodi="http://sodipodi.sourceforge.net/DTD/sodipodi-0.dtd"
   xmlns:inkscape="http://www.inkscape.org/namespaces/inkscape"
   width="128"
   height="64"
   viewBox="0 0 33.866665 16.933335"
   version="1.1"
   id="svg4630"
   inkscape:version="0.92.4 (5da689c313, 2019-01-14)"
   sodipodi:docname="timeline-browsers.svg">
  <defs
     id="defs4624" />
  <sodipodi:namedview
     id="base"
     pagecolor="#ffffff"
     bordercolor="#666666"
     borderopacity="1.0"
     inkscape:pageopacity="0.0"
     inkscape:pageshadow="2"
     inkscape:zoom="5.6"
     inkscape:cx="93.149651"
     inkscape:cy="21.763715"
     inkscape:document-units="px"
     inkscape:current-layer="layer1"
     showgrid="false"
     units="px"
     inkscape:window-width="1920"
     inkscape:window-height="1016"
     inkscape:window-x="0"
     inkscape:window-y="34"
     inkscape:window-maximized="1" />
  <metadata
     id="metadata4627">
    <rdf:RDF>
      <cc:Work
         rdf:about="">
        <dc:format>image/svg+xml</dc:format>
        <dc:type
           rdf:resource="http://purl.org/dc/dcmitype/StillImage" />
        <dc:title></dc:title>
      </cc:Work>
    </rdf:RDF>
  </metadata>
  <g
     inkscape:label="Layer 1"
     inkscape:groupmode="layer"
     id="layer1"
     transform="translate(0,-280.06664)">
    <rect
       style="fill:#ffffff;fill-opacity:1;stroke:none;stroke-width:0.2480469;stroke-linejoin:round;stroke-miterlimit:4;stroke-dasharray:0.4960938, 0.4960938;stroke-dashoffset:0;stroke-opacity:1"
       id="rect11082"
       width="7.2207437"
       height="5.6447883"
       x="4.3862915"
       y="291.03827"
       rx="0.2480469"
       ry="0.2480469" />
    <path
       style="fill:#bababa;fill-opacity:1;fill-rule:nonzero;stroke:none;stroke-width:0.33212495"
       d="m 4.665091,290.64996 c -0.091724,0 -0.1808691,0.0183 -0.2661345,0.0547 -0.085266,0.0351 -0.1601952,0.0861 -0.2247933,0.15116 -0.065885,0.0665 -0.1162711,0.14201 -0.1511531,0.22798 -0.036172,0.0861 -0.05426,0.1746 -0.05426,0.26842 v 4.94558 c 0,0.0938 0.018091,0.1824 0.05426,0.26838 0.034883,0.086 0.085268,0.16153 0.1511531,0.22798 0.064598,0.0652 0.1395281,0.11592 0.2247933,0.15114 C 4.4842222,296.9817 4.5733666,297 4.665091,297 h 6.54482 c 0.09173,0 0.180869,-0.0183 0.266135,-0.0547 0.08526,-0.0351 0.160195,-0.086 0.224793,-0.15114 0.06589,-0.0664 0.116272,-0.142 0.151153,-0.22798 0.03617,-0.0861 0.05426,-0.1746 0.05426,-0.26838 v -4.94558 c 0,-0.0938 -0.01809,-0.18241 -0.05426,-0.26838 -0.03488,-0.0861 -0.08526,-0.16156 -0.151153,-0.22801 -0.0646,-0.0652 -0.139528,-0.11591 -0.224793,-0.15116 -0.08526,-0.0364 -0.174407,-0.0547 -0.266135,-0.0547 z m -0.2880949,0.59668 h 0.5413078 v 0.32573 H 4.3769961 Z m 0.754476,0 h 0.5413077 v 0.32573 H 5.1314721 Z m 0.7673943,0 h 5.5758866 v 0.32573 H 5.8988664 Z m -1.5050759,0.70615 h 7.0874215 v 4.34499 c 0,0.15503 -0.117561,0.27359 -0.271301,0.27359 h -6.54482 c -0.1537361,0 -0.2713005,-0.11852 -0.2713005,-0.27359 z m 0,0"
       id="path11084"
       inkscape:connector-curvature="0" />
    <path
       style="fill:#bababa;fill-opacity:1;fill-rule:nonzero;stroke:none;stroke-width:0.33072919"
       d="m 8.0498961,292.37496 c -0.1266071,0 -0.2519197,0.0117 -0.3772364,0.0361 -0.1240242,0.0258 -0.245464,0.0619 -0.3630284,0.11124 -0.1162702,0.0478 -0.228666,0.10718 -0.333312,0.17825 -0.1059343,0.071 -0.2041227,0.15118 -0.2932643,0.2403 -0.089142,0.0905 -0.1705306,0.18733 -0.2402944,0.29326 -0.071055,0.10597 -0.1304828,0.21706 -0.178283,0.3346 -0.049094,0.11751 -0.085267,0.23775 -0.111105,0.36305 -0.02454,0.12398 -0.036176,0.24933 -0.036176,0.37593 0,0.12786 0.011636,0.25322 0.036176,0.37723 0.02583,0.1254 0.062012,0.24548 0.111105,0.36305 0.047801,0.11752 0.1072293,0.22866 0.178283,0.33459 0.071054,0.10597 0.151153,0.20283 0.2402944,0.29326 0.090435,0.089 0.1873286,0.16928 0.2932643,0.2403 0.1059354,0.0697 0.2170411,0.1292 0.3346054,0.17831 0.1162703,0.0491 0.2377116,0.0853 0.361735,0.10973 0.125317,0.0245 0.2506299,0.0375 0.3772364,0.0375 0.1266096,0 0.2532163,-0.013 0.3772397,-0.0375 0.125317,-0.0244 0.2454639,-0.0607 0.3630281,-0.10973 0.1175605,-0.0491 0.2286664,-0.10846 0.3346021,-0.17831 0.1046454,-0.071 0.2028331,-0.15113 0.2919743,-0.2403 0.090432,-0.0904 0.1705305,-0.18734 0.2415878,-0.29326 0.069761,-0.10596 0.1291898,-0.21702 0.1782828,-0.33459 0.04909,-0.11752 0.08526,-0.2377 0.109812,-0.36305 0.02454,-0.12397 0.03747,-0.24933 0.03747,-0.37723 0,-0.12655 -0.01293,-0.2519 -0.03747,-0.37722 -0.02454,-0.12398 -0.06072,-0.24417 -0.109812,-0.36176 -0.04909,-0.11753 -0.1085214,-0.22867 -0.1782828,-0.3346 -0.071057,-0.10596 -0.1511564,-0.20283 -0.2415878,-0.29326 -0.089142,-0.089 -0.1873282,-0.16922 -0.2919743,-0.2403 -0.1059353,-0.0709 -0.217041,-0.13047 -0.3346021,-0.17825 -0.1175643,-0.0491 -0.2377116,-0.0854 -0.3630281,-0.11124 -0.1240229,-0.0244 -0.2506301,-0.0361 -0.3772397,-0.0361 z m -0.193784,3.46617 c -0.1860354,-0.023 -0.3630284,-0.0789 -0.5296862,-0.16665 -0.1666545,-0.0879 -0.3126414,-0.2028 -0.436665,-0.34362 -0.1240241,-0.14084 -0.2196242,-0.29975 -0.2868052,-0.47542 -0.065884,-0.17701 -0.099477,-0.35918 -0.099477,-0.5478 0,-0.11881 0.01551,-0.23382 0.040051,-0.34623 l 0.9262995,0.9263 v 0.19381 c 0,0.21315 0.1744068,0.38755 0.3875719,0.38755 z m 1.3345417,-0.49088 c -0.024539,-0.08 -0.071054,-0.1447 -0.1395247,-0.19512 -0.067182,-0.0491 -0.1434041,-0.0736 -0.2273763,-0.0736 H 8.6299653 v -0.58007 c 0,-0.10596 -0.086559,-0.19381 -0.1937873,-0.19381 H 7.2773358 v -0.38626 h 0.3862818 c 0.1059354,0 0.1937844,-0.0867 0.1937844,-0.19381 v -0.38629 h 0.3862816 c 0.2118751,0 0.3862817,-0.17439 0.3862817,-0.38626 v -0.08 c 0.1434008,0.0582 0.273887,0.13563 0.3940342,0.23254 0.1188544,0.0969 0.2222069,0.20927 0.3087653,0.33716 0.085265,0.1267 0.1511532,0.26486 0.1963705,0.41213 0.045217,0.14731 0.067182,0.29716 0.067182,0.45088 0.00132,0.4005 -0.134359,0.74802 -0.4056628,1.04259 z m 0,0"
       id="path11086"
       inkscape:connector-curvature="0" />
    <path
       sodipodi:nodetypes="cc"
       inkscape:connector-curvature="0"
       id="path11094"
       d="M 15.191715,280.15876 9.6255584,290.66443"
       style="fill:none;stroke:#fbfbfb;stroke-width:0.19207086;stroke-linecap:butt;stroke-linejoin:miter;stroke-miterlimit:4;stroke-dasharray:0.57621261, 0.57621261;stroke-dashoffset:0;stroke-opacity:1" />
    <path
       style="fill:none;stroke:#fbfbfb;stroke-width:0.19207086;stroke-linecap:butt;stroke-linejoin:miter;stroke-miterlimit:4;stroke-dasharray:0.57621261, 0.57621261;stroke-dashoffset:0;stroke-opacity:1"
       d="m 18.22413,280.15876 5.238817,10.43823"
       id="path11096"
       inkscape:connector-curvature="0"
       sodipodi:nodetypes="cc" />
    <rect
       ry="0.2480469"
       rx="0.2480469"
       y="291.03827"
       x="21.820444"
       height="5.6447883"
       width="7.2207437"
       id="rect820"
       style="fill:#ffffff;fill-opacity:1;stroke:none;stroke-width:0.2480469;stroke-linejoin:round;stroke-miterlimit:4;stroke-dasharray:0.4960938, 0.4960938;stroke-dashoffset:0;stroke-opacity:1" />
    <path
       inkscape:connector-curvature="0"
       id="path822"
       d="m 22.099243,290.64996 c -0.09172,0 -0.180869,0.0183 -0.266135,0.0547 -0.08526,0.0351 -0.160195,0.0861 -0.224793,0.15116 -0.06589,0.0665 -0.116271,0.14201 -0.151153,0.22798 -0.03617,0.0861 -0.05426,0.1746 -0.05426,0.26842 v 4.94558 c 0,0.0938 0.01809,0.1824 0.05426,0.26838 0.03488,0.086 0.08527,0.16153 0.151153,0.22798 0.0646,0.0652 0.139528,0.11592 0.224793,0.15114 0.08527,0.0364 0.174411,0.0547 0.266135,0.0547 h 6.54482 c 0.09173,0 0.180869,-0.0183 0.266135,-0.0547 0.08526,-0.0351 0.160195,-0.086 0.224793,-0.15114 0.06589,-0.0664 0.116272,-0.142 0.151153,-0.22798 0.03617,-0.0861 0.05426,-0.1746 0.05426,-0.26838 v -4.94558 c 0,-0.0938 -0.01809,-0.18241 -0.05426,-0.26838 -0.03488,-0.0861 -0.08526,-0.16156 -0.151153,-0.22801 -0.0646,-0.0652 -0.139528,-0.11591 -0.224793,-0.15116 -0.08526,-0.0364 -0.174407,-0.0547 -0.266135,-0.0547 z m -0.288095,0.59668 h 0.541308 v 0.32573 h -0.541308 z m 0.754476,0 h 0.541308 v 0.32573 h -0.541308 z m 0.767394,0 h 5.575887 v 0.32573 h -5.575887 z m -1.505076,0.70615 h 7.087422 v 4.34499 c 0,0.15503 -0.117561,0.27359 -0.271301,0.27359 h -6.54482 c -0.153736,0 -0.271301,-0.11852 -0.271301,-0.27359 z m 0,0"
       style="fill:#bababa;fill-opacity:1;fill-rule:nonzero;stroke:none;stroke-width:0.33212495" />
    <path
       inkscape:connector-curvature="0"
       id="path824"
       d="m 25.484048,292.37496 c -0.126607,0 -0.25192,0.0117 -0.377236,0.0361 -0.124024,0.0258 -0.245464,0.0619 -0.363029,0.11124 -0.11627,0.0478 -0.228666,0.10718 -0.333312,0.17825 -0.105934,0.071 -0.204122,0.15118 -0.293264,0.2403 -0.08914,0.0905 -0.170531,0.18733 -0.240294,0.29326 -0.07105,0.10597 -0.130483,0.21706 -0.178283,0.3346 -0.04909,0.11751 -0.08527,0.23775 -0.111105,0.36305 -0.02454,0.12398 -0.03618,0.24933 -0.03618,0.37593 0,0.12786 0.01164,0.25322 0.03618,0.37723 0.02583,0.1254 0.06201,0.24548 0.111105,0.36305 0.0478,0.11752 0.107229,0.22866 0.178283,0.33459 0.07105,0.10597 0.151153,0.20283 0.240294,0.29326 0.09043,0.089 0.187329,0.16928 0.293264,0.2403 0.105936,0.0697 0.217041,0.1292 0.334606,0.17831 0.11627,0.0491 0.237711,0.0853 0.361735,0.10973 0.125317,0.0245 0.25063,0.0375 0.377236,0.0375 0.12661,0 0.253216,-0.013 0.37724,-0.0375 0.125317,-0.0244 0.245464,-0.0607 0.363028,-0.10973 0.11756,-0.0491 0.228666,-0.10846 0.334602,-0.17831 0.104645,-0.071 0.202833,-0.15113 0.291974,-0.2403 0.09043,-0.0904 0.170531,-0.18734 0.241588,-0.29326 0.06976,-0.10596 0.12919,-0.21702 0.178283,-0.33459 0.04909,-0.11752 0.08526,-0.2377 0.109812,-0.36305 0.02454,-0.12397 0.03747,-0.24933 0.03747,-0.37723 0,-0.12655 -0.01293,-0.2519 -0.03747,-0.37722 -0.02454,-0.12398 -0.06072,-0.24417 -0.109812,-0.36176 -0.04909,-0.11753 -0.108521,-0.22867 -0.178283,-0.3346 -0.07106,-0.10596 -0.151156,-0.20283 -0.241588,-0.29326 -0.08914,-0.089 -0.187328,-0.16922 -0.291974,-0.2403 -0.105935,-0.0709 -0.217041,-0.13047 -0.334602,-0.17825 -0.117564,-0.0491 -0.237712,-0.0854 -0.363028,-0.11124 -0.124023,-0.0244 -0.25063,-0.0361 -0.37724,-0.0361 z m -0.193784,3.46617 c -0.186035,-0.023 -0.363028,-0.0789 -0.529686,-0.16665 -0.166655,-0.0879 -0.312641,-0.2028 -0.436665,-0.34362 -0.124024,-0.14084 -0.219624,-0.29975 -0.286805,-0.47542 -0.06588,-0.17701 -0.09948,-0.35918 -0.09948,-0.5478 0,-0.11881 0.01551,-0.23382 0.04005,-0.34623 l 0.926299,0.9263 v 0.19381 c 0,0.21315 0.174407,0.38755 0.387572,0.38755 z m 1.334542,-0.49088 c -0.02454,-0.08 -0.07105,-0.1447 -0.139525,-0.19512 -0.06718,-0.0491 -0.143404,-0.0736 -0.227376,-0.0736 h -0.193788 v -0.58007 c 0,-0.10596 -0.08656,-0.19381 -0.193787,-0.19381 h -1.158842 v -0.38626 h 0.386282 c 0.105935,0 0.193784,-0.0867 0.193784,-0.19381 v -0.38629 h 0.386282 c 0.211875,0 0.386281,-0.17439 0.386281,-0.38626 v -0.08 c 0.143401,0.0582 0.273887,0.13563 0.394035,0.23254 0.118854,0.0969 0.222206,0.20927 0.308765,0.33716 0.08526,0.1267 0.151153,0.26486 0.19637,0.41213 0.04522,0.14731 0.06718,0.29716 0.06718,0.45088 0.0013,0.4005 -0.134359,0.74802 -0.405662,1.04259 z m 0,0"
       style="fill:#bababa;fill-opacity:1;fill-rule:nonzero;stroke:none;stroke-width:0.33072919" />
  </g>
</svg>
