<?xml version="1.0" encoding="UTF-8" standalone="no"?>
<!-- Generated by IcoMoon.io -->

<svg
   xmlns:dc="http://purl.org/dc/elements/1.1/"
   xmlns:cc="http://creativecommons.org/ns#"
   xmlns:rdf="http://www.w3.org/1999/02/22-rdf-syntax-ns#"
   xmlns:svg="http://www.w3.org/2000/svg"
   xmlns="http://www.w3.org/2000/svg"
   xmlns:sodipodi="http://sodipodi.sourceforge.net/DTD/sodipodi-0.dtd"
   xmlns:inkscape="http://www.inkscape.org/namespaces/inkscape"
   version="1.1"
   width="32"
   height="32"
   viewBox="0 0 32 32"
   id="svg2"
   inkscape:version="0.92.4 (5da689c313, 2019-01-14)"
   sodipodi:docname="apple.svg">
  <metadata
     id="metadata10">
    <rdf:RDF>
      <cc:Work
         rdf:about="">
        <dc:format>image/svg+xml</dc:format>
        <dc:type
           rdf:resource="http://purl.org/dc/dcmitype/StillImage" />
      </cc:Work>
    </rdf:RDF>
  </metadata>
  <defs
     id="defs8" />
  <sodipodi:namedview
     pagecolor="#ffffff"
     bordercolor="#666666"
     borderopacity="1"
     objecttolerance="10"
     gridtolerance="10"
     guidetolerance="10"
     inkscape:pageopacity="0"
     inkscape:pageshadow="2"
     inkscape:window-width="1460"
     inkscape:window-height="818"
     id="namedview6"
     showgrid="false"
     inkscape:zoom="10.429825"
     inkscape:cx="12.385565"
     inkscape:cy="4.1403281"
     inkscape:window-x="0"
     inkscape:window-y="34"
     inkscape:window-maximized="0"
     inkscape:current-layer="svg2" />
  <path
     d="m 28.176039,24.42815 c -0.456347,1.054253 -0.996508,2.024684 -1.622355,2.916886 -0.853085,1.216298 -1.551572,2.058212 -2.089875,2.525733 -0.834461,0.767403 -1.728523,1.16042 -2.685917,1.182773 -0.687313,0 -1.516186,-0.195578 -2.48103,-0.592316 -0.96801,-0.394883 -1.857606,-0.590457 -2.671017,-0.590457 -0.853086,0 -1.768013,0.195574 -2.74664,0.590457 -0.980118,0.396738 -1.76969,0.603491 -2.373369,0.62398 C 10.587744,31.124321 9.6726333,30.720129 8.7591971,29.870769 8.1761929,29.362268 7.4469722,28.490555 6.5733971,27.255627 5.636118,25.936884 4.8655454,24.407663 4.261867,22.664238 3.6153463,20.781114 3.2912485,18.957595 3.2912485,17.192192 c 0,-2.022262 0.4369751,-3.766434 1.312225,-5.228041 0.6878724,-1.174018 1.6029835,-2.1001198 2.7483176,-2.7799838 1.1453341,-0.67986 2.3828681,-1.02631 3.7155829,-1.048474 0.729221,0 1.685496,0.225564 2.873856,0.66887 1.185008,0.444796 1.945894,0.670363 2.279491,0.670363 0.249407,0 1.094671,-0.26375 2.527595,-0.789572 1.355067,-0.487635 2.498723,-0.689547 3.435627,-0.610012 2.538772,0.204889 4.446111,1.205682 5.714562,3.0087118 -2.27055,1.375742 -3.393717,3.302639 -3.371367,5.774538 0.0205,1.925406 0.718978,3.527643 2.091737,4.799823 0.622119,0.590453 1.316885,1.0468 2.089876,1.370897 -0.167635,0.486149 -0.344588,0.951807 -0.532712,1.398838 z M 22.353446,1.5158912 c 0,1.509122 -0.551342,2.918187 -1.650293,4.222403 -1.326197,1.550457 -2.930296,2.446385 -4.669813,2.305011 -0.02215,-0.181049 -0.03502,-0.371596 -0.03502,-0.571829 0,-1.448758 0.630689,-2.999212 1.750691,-4.266923 0.559161,-0.641862 1.270314,-1.175562 2.132714,-1.601306 0.860538,-0.4193901 1.67451,-0.65132307 2.440051,-0.69104107 0.02234,0.20174697 0.03166,0.40350597 0.03166,0.60366607 z"
     id="path4"
     inkscape:connector-curvature="0"
     style="stroke-width:0.02541749" />
</svg>
