<?xml version="1.0" encoding="UTF-8" standalone="no"?>
<!-- Generated by IcoMoon.io -->

<svg
   xmlns:dc="http://purl.org/dc/elements/1.1/"
   xmlns:cc="http://creativecommons.org/ns#"
   xmlns:rdf="http://www.w3.org/1999/02/22-rdf-syntax-ns#"
   xmlns:svg="http://www.w3.org/2000/svg"
   xmlns="http://www.w3.org/2000/svg"
   xmlns:sodipodi="http://sodipodi.sourceforge.net/DTD/sodipodi-0.dtd"
   xmlns:inkscape="http://www.inkscape.org/namespaces/inkscape"
   version="1.1"
   width="32"
   height="32"
   viewBox="0 0 32 32"
   id="svg2"
   inkscape:version="0.92.4 (5da689c313, 2019-01-14)"
   sodipodi:docname="browser.svg">
  <metadata
     id="metadata10">
    <rdf:RDF>
      <cc:Work
         rdf:about="">
        <dc:format>image/svg+xml</dc:format>
        <dc:type
           rdf:resource="http://purl.org/dc/dcmitype/StillImage" />
        <dc:title />
      </cc:Work>
    </rdf:RDF>
  </metadata>
  <defs
     id="defs8">
    <inkscape:path-effect
       effect="transform_2pts"
       start="28,22.466797"
       end="28,22.466797"
       id="path-effect4589"
       is_visible="true"
       first_knot="1"
       last_knot="12"
       helper_size="3"
       stretch="1"
       offset="0"
       elastic="false"
       from_original_width="false"
       flip_vertical="false"
       flip_horizontal="false"
       lock_lenght="false"
       lock_angle="false" />
    <inkscape:path-effect
       effect="spiro"
       id="path-effect4587"
       is_visible="true" />
    <inkscape:path-effect
       effect="simplify"
       id="path-effect881"
       is_visible="true"
       steps="8"
       threshold="0.0039"
       smooth_angles="0"
       helper_size="2"
       simplify_individual_paths="false"
       simplify_just_coalesce="false" />
    <inkscape:perspective
       sodipodi:type="inkscape:persp3d"
       inkscape:vp_x="0 : 16 : 1"
       inkscape:vp_y="0 : 1000 : 0"
       inkscape:vp_z="32 : 16 : 1"
       inkscape:persp3d-origin="16 : 10.666667 : 1"
       id="perspective848" />
  </defs>
  <sodipodi:namedview
     pagecolor="#ffffff"
     bordercolor="#666666"
     borderopacity="1"
     objecttolerance="10"
     gridtolerance="10"
     guidetolerance="10"
     inkscape:pageopacity="0"
     inkscape:pageshadow="2"
     inkscape:window-width="1920"
     inkscape:window-height="1016"
     id="namedview6"
     showgrid="false"
     inkscape:zoom="16"
     inkscape:cx="28.467467"
     inkscape:cy="12.826286"
     inkscape:window-x="0"
     inkscape:window-y="34"
     inkscape:window-maximized="1"
     inkscape:current-layer="svg2"
     showguides="false"
     inkscape:guide-bbox="true" />
  <path
     d="M 2.8066406 3.3066406 C 1.2667362 3.3066406 1.1842379e-15 4.5733768 0 6.1132812 L 0 25.886719 C 0 27.426623 1.2667361 28.693359 2.8066406 28.693359 L 29.193359 28.693359 C 30.733264 28.693359 32 27.426623 32 25.886719 L 32 6.1132812 C 32 4.5733767 30.733264 3.3066406 29.193359 3.3066406 L 2.8066406 3.3066406 z M 1.6445312 5.6953125 L 3.828125 5.6953125 L 3.828125 6.9941406 L 1.6445312 6.9941406 L 1.6445312 5.6953125 z M 4.6855469 5.6953125 L 6.8691406 5.6953125 L 6.8691406 6.9941406 L 4.6855469 6.9941406 L 4.6855469 5.6953125 z M 7.7832031 5.6953125 L 30.261719 5.6953125 L 30.261719 6.9941406 L 7.7832031 6.9941406 L 7.7832031 5.6953125 z M 1.7148438 8.5136719 L 30.285156 8.5136719 L 30.285156 25.886719 C 30.285156 26.506116 29.812758 26.978516 29.193359 26.978516 L 2.8066406 26.978516 C 2.1872425 26.978516 1.7148437 26.506116 1.7148438 25.886719 L 1.7148438 8.5136719 z "
     id="rect953" />
  <path
     inkscape:connector-curvature="0"
     d="m 16.454024,10.045373 c -4.303105,0 -7.7955051,3.492367 -7.7955051,7.795473 0,4.303112 3.4924001,7.79551 7.7955051,7.79551 4.303111,0 7.795479,-3.492398 7.795479,-7.79551 0,-4.303106 -3.492368,-7.795473 -7.795479,-7.795473 z m -0.77957,13.977307 c -3.079202,-0.381989 -5.456826,-3.001274 -5.456826,-6.181834 0,-0.48331 0.06243,-0.943234 0.163812,-1.395375 l 3.734054,3.734021 v 0.779571 c 0,0.857498 0.701584,1.559076 1.559083,1.559076 z m 5.378904,-1.980048 c -0.20271,-0.631427 -0.779538,-1.083569 -1.481149,-1.083569 h -0.779538 v -2.338647 c 0,-0.428749 -0.35079,-0.77957 -0.77957,-0.77957 h -4.677288 v -1.559077 h 1.559102 c 0.428749,0 0.779539,-0.350815 0.779539,-0.779563 v -1.559084 h 1.559108 c 0.857499,0 1.559109,-0.701603 1.559109,-1.559102 v -0.319621 c 2.28408,0.927649 3.897723,3.164977 3.897723,5.776447 0,1.621484 -0.62362,3.094825 -1.637036,4.201786 z"
     id="path4-6" />
</svg>
