<?xml version="1.0" encoding="UTF-8" standalone="no"?>
<!-- Generated by IcoMoon.io -->

<svg
   xmlns:dc="http://purl.org/dc/elements/1.1/"
   xmlns:cc="http://creativecommons.org/ns#"
   xmlns:rdf="http://www.w3.org/1999/02/22-rdf-syntax-ns#"
   xmlns:svg="http://www.w3.org/2000/svg"
   xmlns="http://www.w3.org/2000/svg"
   xmlns:sodipodi="http://sodipodi.sourceforge.net/DTD/sodipodi-0.dtd"
   xmlns:inkscape="http://www.inkscape.org/namespaces/inkscape"
   version="1.1"
   width="32"
   height="32"
   viewBox="0 0 32 32"
   id="svg2"
   inkscape:version="0.92.4 (5da689c313, 2019-01-14)"
   sodipodi:docname="db.svg">
  <metadata
     id="metadata10">
    <rdf:RDF>
      <cc:Work
         rdf:about="">
        <dc:format>image/svg+xml</dc:format>
        <dc:type
           rdf:resource="http://purl.org/dc/dcmitype/StillImage" />
        <dc:title></dc:title>
      </cc:Work>
    </rdf:RDF>
  </metadata>
  <defs
     id="defs8">
    <inkscape:path-effect
       effect="transform_2pts"
       start="28,22.466797"
       end="28,22.466797"
       id="path-effect4589"
       is_visible="true"
       first_knot="1"
       last_knot="12"
       helper_size="3"
       stretch="1"
       offset="0"
       elastic="false"
       from_original_width="false"
       flip_vertical="false"
       flip_horizontal="false"
       lock_lenght="false"
       lock_angle="false" />
    <inkscape:path-effect
       effect="spiro"
       id="path-effect4587"
       is_visible="true" />
    <inkscape:path-effect
       effect="simplify"
       id="path-effect881"
       is_visible="true"
       steps="8"
       threshold="0.0039"
       smooth_angles="0"
       helper_size="2"
       simplify_individual_paths="false"
       simplify_just_coalesce="false" />
    <inkscape:perspective
       sodipodi:type="inkscape:persp3d"
       inkscape:vp_x="0 : 16 : 1"
       inkscape:vp_y="0 : 1000 : 0"
       inkscape:vp_z="32 : 16 : 1"
       inkscape:persp3d-origin="16 : 10.666667 : 1"
       id="perspective848" />
  </defs>
  <sodipodi:namedview
     pagecolor="#ffffff"
     bordercolor="#666666"
     borderopacity="1"
     objecttolerance="10"
     gridtolerance="10"
     guidetolerance="10"
     inkscape:pageopacity="0"
     inkscape:pageshadow="2"
     inkscape:window-width="1920"
     inkscape:window-height="1016"
     id="namedview6"
     showgrid="false"
     inkscape:zoom="22.627417"
     inkscape:cx="20.512839"
     inkscape:cy="13.345357"
     inkscape:window-x="0"
     inkscape:window-y="34"
     inkscape:window-maximized="1"
     inkscape:current-layer="svg2"
     showguides="false"
     inkscape:guide-bbox="true" />
  <path
     style="fill:#000000;fill-opacity:1;stroke-width:2.13738918"
     d="m 28,8.6699219 c -0.671783,0.5387818 -1.465234,1.023206 -2.369141,1.4160161 -2.539809,1.103717 -5.919364,1.498046 -9.646484,1.498046 -3.72712,0 -7.1066744,-0.39433 -9.6464844,-1.498046 C 5.447425,9.6989689 4.665538,9.2224524 4,8.6933594 v 3.8632816 c 0.066496,0.426386 0.273449,0.941402 0.7011719,1.380859 0.528522,0.543021 1.3742478,1.161934 2.4667969,1.636719 2.185105,0.949576 5.3335482,1.326172 8.8164062,1.326172 3.482858,0 6.631301,-0.376596 8.816406,-1.326172 1.092553,-0.474788 1.938275,-1.093698 2.466797,-1.636719 C 27.7961,13.394478 28,12.727527 28,12.267578 c 0,-0.01282 -0.0036,-0.0262 -0.0039,-0.03906 H 28 Z"
     id="path879" />
  <path
     style="fill:#000000;fill-opacity:1;stroke-width:2.13738918"
     d="m 28,15.888672 c -0.671811,0.538826 -1.465173,1.025134 -2.369141,1.417969 -2.539809,1.10372 -5.919364,1.498047 -9.646484,1.498047 -3.72712,0 -7.1066744,-0.394327 -9.6464844,-1.498047 C 5.4473465,16.919639 4.6655748,16.441259 4,15.912109 v 3.220703 c 0.066409,0.426476 0.2732885,0.943191 0.7011719,1.382813 0.528522,0.543021 1.3742479,1.161934 2.4667969,1.636719 2.185105,0.949576 5.3335482,1.326172 8.8164062,1.326172 3.482858,0 6.631301,-0.376596 8.816406,-1.326172 1.092553,-0.474788 1.938275,-1.093698 2.466797,-1.636719 C 27.7961,19.972603 28,19.305652 28,18.845703 c 0,-0.01282 -0.0036,-0.0262 -0.0039,-0.03906 H 28 Z"
     id="path877" />
  <path
     style="fill:#000000;fill-opacity:1;stroke-width:2.13738918"
     d="m 28,22.466797 c -2.708045,2.151024 -6.276967,2.65151 -9.624749,2.854157 C 14.634377,25.46038 10.787347,25.416277 7.2007591,24.219923 6.0505122,23.820289 4.9541862,23.250148 4,22.490234 c 0.00523,1.367163 -0.010447,2.755236 0.00781,4.109374 0.1644008,1.107058 1.3588632,1.596637 2.2621389,2.001778 3.1442081,1.181976 6.5524531,1.428062 9.8839321,1.45302 3.229768,-0.0466 6.529751,-0.304076 9.57617,-1.453019 0.909452,-0.400933 2.095702,-0.907352 2.269949,-2.001778 0,-1.377604 0,-2.755208 0,-4.132812 z"
     id="path816"
     inkscape:connector-curvature="0" />
  <path
     style="fill:#000000;fill-opacity:1;stroke-width:2.13738918"
     d="m 28,6.11732 a 12,3.5 0 0 1 -12,3.5 12,3.5 0 0 1 -12,-3.5 12,3.5 0 0 1 12,-3.5 12,3.5 0 0 1 12,3.5 z"
     id="ellipse820"
     inkscape:connector-curvature="0" />
</svg>
