<?xml version="1.0" encoding="UTF-8" standalone="no"?>
<!-- Generated by IcoMoon.io -->

<svg
   xmlns:dc="http://purl.org/dc/elements/1.1/"
   xmlns:cc="http://creativecommons.org/ns#"
   xmlns:rdf="http://www.w3.org/1999/02/22-rdf-syntax-ns#"
   xmlns:svg="http://www.w3.org/2000/svg"
   xmlns="http://www.w3.org/2000/svg"
   xmlns:sodipodi="http://sodipodi.sourceforge.net/DTD/sodipodi-0.dtd"
   xmlns:inkscape="http://www.inkscape.org/namespaces/inkscape"
   version="1.1"
   width="32"
   height="32"
   viewBox="0 0 32 32"
   id="svg2"
   inkscape:version="0.92.4 (5da689c313, 2019-01-14)"
   sodipodi:docname="linux.svg">
  <metadata
     id="metadata10">
    <rdf:RDF>
      <cc:Work
         rdf:about="">
        <dc:format>image/svg+xml</dc:format>
        <dc:type
           rdf:resource="http://purl.org/dc/dcmitype/StillImage" />
      </cc:Work>
    </rdf:RDF>
  </metadata>
  <defs
     id="defs8" />
  <sodipodi:namedview
     pagecolor="#ffffff"
     bordercolor="#666666"
     borderopacity="1"
     objecttolerance="10"
     gridtolerance="10"
     guidetolerance="10"
     inkscape:pageopacity="0"
     inkscape:pageshadow="2"
     inkscape:window-width="1460"
     inkscape:window-height="818"
     id="namedview6"
     showgrid="false"
     inkscape:zoom="10.429825"
     inkscape:cx="15.156876"
     inkscape:cy="15.834989"
     inkscape:window-x="0"
     inkscape:window-y="34"
     inkscape:window-maximized="0"
     inkscape:current-layer="svg2" />
  <path
     inkscape:connector-curvature="0"
     style="fill:currentColor;stroke-width:0.05975699"
     d="m 15.802913,8.0690306 c 0.05976,0.029884 0.107562,0.1015917 0.179272,0.1015917 0.06574,0 0.16732,-0.023913 0.173297,-0.08964 0.01193,-0.083659 -0.11354,-0.1374414 -0.191222,-0.1732911 -0.101592,-0.041813 -0.233052,-0.059757 -0.328667,-0.00593 -0.02391,0.01193 -0.04778,0.041813 -0.03585,0.065738 0.01795,0.077678 0.137441,0.065727 0.203174,0.1015918 z m -1.308676,0.1015917 c 0.07171,0 0.119512,-0.071708 0.179269,-0.1015917 0.06574,-0.035854 0.185249,-0.023913 0.209151,-0.095611 0.01193,-0.023913 -0.01193,-0.053786 -0.03585,-0.065738 -0.09561,-0.053786 -0.227076,-0.035854 -0.328663,0.00593 -0.07769,0.035854 -0.203175,0.08964 -0.191222,0.1732966 0.0059,0.059757 0.107562,0.08963 0.16732,0.083659 z M 27.70651,24.830867 c -0.215127,-0.239028 -0.316715,-0.69318 -0.430256,-1.177214 -0.107562,-0.48403 -0.233052,-1.003919 -0.627447,-1.338558 -0.07768,-0.06574 -0.155366,-0.125489 -0.239023,-0.173291 -0.07769,-0.04783 -0.161349,-0.08964 -0.245006,-0.119517 0.549762,-1.631367 0.33464,-3.256756 -0.2211,-4.72678 -0.681231,-1.798685 -1.870395,-3.370291 -2.778702,-4.445918 -1.021843,-1.284773 -2.013809,-2.50382 -1.995884,-4.302506 0.02988,-2.7428426 0.304761,-7.84011591 -4.529581,-7.84609265 -6.119116,-0.0119298 -4.589336,6.17887255 -4.65507,8.07914515 -0.101592,1.3983135 -0.382442,2.4978435 -1.344529,3.8662795 -1.1294114,1.344534 -2.7189461,3.513709 -3.4718825,5.7785 -0.3585412,1.06965 -0.525861,2.157232 -0.3704947,3.185051 -0.3884184,0.346588 -0.6812262,0.878425 -0.9919642,1.207088 -0.2509824,0.256958 -0.6155003,0.352569 -1.0158723,0.495983 -0.4003719,0.143418 -0.8365935,0.358545 -1.1055008,0.866476 -0.1254933,0.233052 -0.1673198,0.484035 -0.1673198,0.740988 0,0.233053 0.035854,0.472081 0.071708,0.705134 0.071708,0.48403 0.1493907,0.938186 0.047784,1.242947 -0.310738,0.8605 -0.3525644,1.45807 -0.1314647,1.894297 0.2270754,0.436226 0.6812316,0.627447 1.2011159,0.735011 1.033796,0.215122 2.4380867,0.161343 3.5435876,0.74696 1.1831908,0.621471 2.3843065,0.842575 3.3404175,0.621471 0.69318,-0.155367 1.260872,-0.573663 1.547703,-1.207088 0.746965,-0.0059 1.571611,-0.322691 2.886267,-0.394395 0.890378,-0.07171 2.007831,0.31671 3.29261,0.245001 0.03585,0.137441 0.08366,0.274882 0.14939,0.400371 v 0.0059 c 0.495983,0.997942 1.422215,1.452093 2.408209,1.374412 0.991965,-0.07769 2.037715,-0.657331 2.886262,-1.667221 0.812697,-0.980017 2.15125,-1.386366 3.041632,-1.924174 0.442199,-0.268907 0.800745,-0.603547 0.830623,-1.093553 0.02391,-0.490011 -0.26293,-1.033796 -0.926232,-1.774784 z M 15.976209,5.9177759 C 16.56183,4.591171 18.0199,4.6150769 18.605516,5.8938629 18.993936,6.7424153 18.820644,7.7403563 18.348563,8.308048 18.252952,8.2602638 17.995994,8.1526759 17.595622,8.0152345 17.66136,7.9435265 17.780871,7.8538914 17.828674,7.7403559 18.11551,7.0352227 17.816744,6.1269146 17.284888,6.1089898 16.848662,6.079106 16.454267,6.754363 16.579755,7.4833978 16.334749,7.3638855 16.01804,7.2742516 15.802913,7.2204673 c -0.05976,-0.41232 -0.01795,-0.872453 0.173296,-1.3027032 z m -2.432111,-0.687204 c 0.603547,0 1.242948,0.8485514 1.14136,2.0018597 -0.20915,0.059757 -0.424273,0.1493896 -0.609522,0.274884 C 14.147646,6.9754779 13.878738,6.3061998 13.502272,6.336077 13.000313,6.37789 12.916651,7.6029252 13.39471,8.0152463 13.45447,8.0630303 13.508245,8.0033163 13.042141,8.3439092 12.109931,7.4714605 12.414694,5.2305719 13.5441,5.2305719 Z M 12.731406,8.8578213 C 13.1019,8.5829381 13.544098,8.260252 13.573977,8.2303736 c 0.280859,-0.2629305 0.80672,-0.8485524 1.667221,-0.8485524 0.424273,0 0.932208,0.1374425 1.547708,0.5318377 0.376466,0.2450056 0.67525,0.2629305 1.350506,0.5557436 0.501959,0.2091466 0.818674,0.5796402 0.627447,1.0875763 -0.155366,0.4242736 -0.657325,0.8605002 -1.356482,1.0815992 -0.663302,0.215128 -1.183186,0.956116 -2.282715,0.890382 -0.233052,-0.01193 -0.418302,-0.05976 -0.573668,-0.125493 -0.478058,-0.209145 -0.729035,-0.621471 -1.19514,-0.896355 -0.513912,-0.286831 -0.788791,-0.6214703 -0.87843,-0.9142792 -0.08366,-0.2928077 0,-0.5378134 0.250982,-0.7350115 z M 12.928604,28.816658 C 12.767261,30.914129 10.305273,30.872297 8.4289009,29.892286 6.6421685,28.948124 4.3295708,29.503862 3.8574898,28.583606 3.7140759,28.302746 3.7140759,27.824692 4.0128604,27.006019 v -0.01193 c 0.1434139,-0.454157 0.035854,-0.956111 -0.035854,-1.428192 -0.071708,-0.466105 -0.1075621,-0.896355 0.053776,-1.19514 0.2091505,-0.400372 0.5079361,-0.54379 0.8844065,-0.675255 0.6154949,-0.221099 0.7051288,-0.203174 1.1712331,-0.591593 0.3286672,-0.340616 0.5676918,-0.770867 0.8545282,-1.075628 0.3047612,-0.328663 0.5975701,-0.484029 1.0576976,-0.412325 0.4840292,0.07171 0.9023315,0.406348 1.30868,0.956115 L 10.47856,24.69942 c 0.567692,1.189164 2.575529,2.892239 2.45004,4.117256 z m -0.08366,-1.547704 c -0.245001,-0.3944 -0.573664,-0.812697 -0.860501,-1.171238 0.424274,0 0.848553,-0.131465 0.997942,-0.531837 0.137442,-0.370494 0,-0.890378 -0.442203,-1.487953 -0.806715,-1.087575 -2.288691,-1.942099 -2.288691,-1.942099 -0.8067199,-0.501959 -1.2608714,-1.117459 -1.4700224,-1.786732 -0.2091451,-0.66928 -0.1792679,-1.392343 -0.017954,-2.103449 0.3107374,-1.368435 1.1114814,-2.701017 1.6253883,-3.537615 0.137442,-0.101592 0.04783,0.191222 -0.5198834,1.242947 -0.5079358,0.962088 -1.4580694,3.185047 -0.1553715,4.923976 0.03585,-1.236969 0.3286679,-2.497842 0.8246499,-3.675057 0.717081,-1.637343 2.228936,-4.475796 2.348448,-6.734611 0.06574,0.04778 0.274884,0.191221 0.370494,0.245001 0.274883,0.161343 0.484029,0.400372 0.752937,0.6155 0.740988,0.59757 1.703075,0.549761 2.533697,0.07171 0.370494,-0.209151 0.669278,-0.44818 0.950139,-0.537814 0.591593,-0.18525 1.063674,-0.513913 1.332576,-0.8963546 0.460133,1.8166106 1.535756,4.4399426 2.222964,5.7187446 0.364518,0.681227 1.093553,2.121372 1.410262,3.860302 0.197198,-0.0059 0.418302,0.02391 0.651354,0.08366 0.824651,-2.133326 -0.699151,-4.433966 -1.392331,-5.073368 -0.28086,-0.274883 -0.292814,-0.394395 -0.155371,-0.388423 0.752941,0.669278 1.744906,2.013813 2.103447,3.525663 0.16732,0.693185 0.197197,1.416243 0.02391,2.133324 0.980016,0.406349 2.145277,1.069651 1.834539,2.079547 -0.131464,-0.0059 -0.191221,0 -0.250977,0 0.191221,-0.603547 -0.233053,-1.051726 -1.36246,-1.559657 -1.171237,-0.513913 -2.151254,-0.513913 -2.288696,0.746959 -0.723059,0.250983 -1.093552,0.87843 -1.278797,1.631367 -0.16732,0.669279 -0.215127,1.475999 -0.26293,2.384306 -0.02988,0.460129 -0.215128,1.075624 -0.406349,1.73295 -1.918198,1.368435 -4.583361,1.966005 -6.830226,0.430254 z m 15.381453,-0.687208 c -0.05378,1.003918 -2.461989,1.189162 -3.776645,2.778702 -0.788791,0.938181 -1.756856,1.458071 -2.605402,1.523803 -0.848552,0.06573 -1.583564,-0.286832 -2.013814,-1.153308 -0.280854,-0.663308 -0.143413,-1.38039 0.06574,-2.169181 0.221104,-0.848551 0.549767,-1.721004 0.591597,-2.426133 0.04778,-0.908308 0.101581,-1.703075 0.250977,-2.312598 0.155367,-0.615495 0.394396,-1.02782 0.818669,-1.260873 0.01795,-0.01193 0.04181,-0.0179 0.05976,-0.02988 0.04778,0.78879 0.436222,1.589534 1.123431,1.762831 0.752936,0.197198 1.83454,-0.44818 2.294668,-0.974041 0.537814,-0.01795 0.938186,-0.05377 1.350506,0.304762 0.591593,0.507936 0.424273,1.810639 1.021848,2.485889 0.63342,0.693185 0.836594,1.165262 0.81867,1.470023 z M 12.964458,9.5868561 c 0.119513,0.1135409 0.280856,0.2689072 0.478054,0.4242739 0.394395,0.310738 0.944162,0.633425 1.631366,0.633425 0.69318,0 1.344534,-0.352564 1.900272,-0.6453735 0.292809,-0.1553717 0.651355,-0.4183011 0.884407,-0.621476 0.233052,-0.2031738 0.352564,-0.376466 0.185244,-0.3943952 -0.167319,-0.0179 -0.155366,0.1553717 -0.358541,0.3047613 -0.262929,0.1912214 -0.579644,0.4422027 -0.830621,0.5856166 -0.442204,0.2509828 -1.165262,0.6095228 -1.786738,0.6095228 -0.621471,0 -1.117454,-0.286831 -1.487948,-0.5796402 -0.185244,-0.1493949 -0.340616,-0.2987845 -0.460128,-0.4123254 -0.08963,-0.083659 -0.11354,-0.2748829 -0.256954,-0.2928078 -0.08366,-0.00593 -0.107562,0.2210987 0.101592,0.3884185 z"
     id="path2" />
</svg>
