<?xml version="1.0" encoding="UTF-8" standalone="no"?>
<!-- Generator: Adobe Illustrator 16.0.0, SVG Export Plug-In . SVG Version: 6.00 Build 0)  -->

<svg
   xmlns:dc="http://purl.org/dc/elements/1.1/"
   xmlns:cc="http://creativecommons.org/ns#"
   xmlns:rdf="http://www.w3.org/1999/02/22-rdf-syntax-ns#"
   xmlns:svg="http://www.w3.org/2000/svg"
   xmlns="http://www.w3.org/2000/svg"
   xmlns:sodipodi="http://sodipodi.sourceforge.net/DTD/sodipodi-0.dtd"
   xmlns:inkscape="http://www.inkscape.org/namespaces/inkscape"
   version="1.1"
   id="Layer_1"
   x="0px"
   y="0px"
   width="32px"
   height="32px"
   viewBox="0 0 32 32"
   enable-background="new 0 0 32 32"
   xml:space="preserve"
   sodipodi:docname="qgis.svg"
   inkscape:version="0.92.4 (5da689c313, 2019-01-14)"><metadata
   id="metadata13"><rdf:RDF><cc:Work
       rdf:about=""><dc:format>image/svg+xml</dc:format><dc:type
         rdf:resource="http://purl.org/dc/dcmitype/StillImage" /></cc:Work></rdf:RDF></metadata><defs
   id="defs11" /><sodipodi:namedview
   pagecolor="#ffffff"
   bordercolor="#666666"
   borderopacity="1"
   objecttolerance="10"
   gridtolerance="10"
   guidetolerance="10"
   inkscape:pageopacity="0"
   inkscape:pageshadow="2"
   inkscape:window-width="1453"
   inkscape:window-height="816"
   id="namedview9"
   showgrid="false"
   inkscape:zoom="14.75"
   inkscape:cx="10.046095"
   inkscape:cy="15.545755"
   inkscape:window-x="463"
   inkscape:window-y="234"
   inkscape:window-maximized="0"
   inkscape:current-layer="Layer_1" />
<polygon
   points="17.613,17.625 21.97,17.612 17.969,13.625 13.613,13.625 13.613,17.625 17.613,22.082 "
   id="polygon2"
   transform="matrix(0.87374399,0,0,0.87374399,2,1.9916996)" />
<polygon
   points="31.613,27.222 23.989,19.624 19.613,19.625 19.613,23.958 26.853,31.625 31.613,31.625 "
   id="polygon4"
   transform="matrix(0.87374399,0,0,0.87374399,2,1.9916996)" />
<path
   d="m 17.727392,23.996942 c -0.595893,0.137179 -1.02228,0.170381 -1.660987,0.170381 -4.568808,0 -8.4552211,-3.7571 -8.4552211,-8.629096 0,-4.871996 3.8435991,-8.5460906 8.4552211,-8.5460906 4.61162,0 8.28484,3.6740946 8.28484,8.5460906 0,0.792486 -0.13543,1.713412 -0.318043,2.435998 l 4.266492,4.0699 C 29.390126,20.133247 30,17.912189 30,15.506772 30,7.9978158 24.007864,2.3761469 15.981652,2.3761469 7.9921363,2.3752732 2,7.9602447 2,15.505898 c 0,7.582351 5.9921363,13.278288 13.980778,13.278288 2.062909,0 3.690694,-0.262124 5.417212,-0.952381 z"
   id="path6"
   inkscape:connector-curvature="0"
   style="stroke-width:0.87374401" />
</svg>