<?xml version="1.0" encoding="UTF-8" standalone="no"?>
<!-- Created with Inkscape (http://www.inkscape.org/) -->

<svg
   xmlns:dc="http://purl.org/dc/elements/1.1/"
   xmlns:cc="http://creativecommons.org/ns#"
   xmlns:rdf="http://www.w3.org/1999/02/22-rdf-syntax-ns#"
   xmlns:svg="http://www.w3.org/2000/svg"
   xmlns="http://www.w3.org/2000/svg"
   xmlns:sodipodi="http://sodipodi.sourceforge.net/DTD/sodipodi-0.dtd"
   xmlns:inkscape="http://www.inkscape.org/namespaces/inkscape"
   width="128"
   height="48"
   viewBox="0 0 33.866665 12.7"
   version="1.1"
   id="svg3957"
   inkscape:version="0.92.4 (5da689c313, 2019-01-14)"
   sodipodi:docname="timeline-publish.svg">
  <defs
     id="defs3951" />
  <sodipodi:namedview
     id="base"
     pagecolor="#ffffff"
     bordercolor="#666666"
     borderopacity="1.0"
     inkscape:pageopacity="0.0"
     inkscape:pageshadow="2"
     inkscape:zoom="11.2"
     inkscape:cx="23.604551"
     inkscape:cy="26.001709"
     inkscape:document-units="px"
     inkscape:current-layer="layer1"
     showgrid="false"
     units="px"
     inkscape:window-width="1920"
     inkscape:window-height="1016"
     inkscape:window-x="0"
     inkscape:window-y="34"
     inkscape:window-maximized="1" />
  <metadata
     id="metadata3954">
    <rdf:RDF>
      <cc:Work
         rdf:about="">
        <dc:format>image/svg+xml</dc:format>
        <dc:type
           rdf:resource="http://purl.org/dc/dcmitype/StillImage" />
        <dc:title />
      </cc:Work>
    </rdf:RDF>
  </metadata>
  <g
     inkscape:label="Layer 1"
     inkscape:groupmode="layer"
     id="layer1"
     transform="translate(0,-284.29998)">
    <path
       sodipodi:nodetypes="cccc"
       inkscape:connector-curvature="0"
       id="path823"
       d="M 10.393136,291.62955 H 2.7881778 c -1.61109,-0.21403 -2.44282677,-0.92389 -2.51171777,-2.84244 v -4.19321"
       style="fill:none;stroke:#00a6e3;stroke-width:0.52899999;stroke-linecap:round;stroke-linejoin:round;stroke-miterlimit:4;stroke-dasharray:0.52899999,1.05799999;stroke-dashoffset:0.37029999;stroke-opacity:1" />
    <path
       style="fill:none;stroke:#00a6e3;stroke-width:0.52916665;stroke-linecap:round;stroke-linejoin:round;stroke-miterlimit:4;stroke-dasharray:0.52916665,1.05833331;stroke-dashoffset:0.47624999;stroke-opacity:1"
       d="m 23.465256,291.62955 h 7.256914 c 1.61109,-0.21403 2.773556,-0.92389 2.842447,-2.84244 v -4.45307"
       id="path11932"
       inkscape:connector-curvature="0"
       sodipodi:nodetypes="cccc" />
    <path
       style="fill:#ffffff;fill-opacity:1;fill-rule:nonzero;stroke:none;stroke-width:0.32564178"
       d="m 23.28333,290.64997 c 0,0.20734 -0.01016,0.41595 -0.03052,0.62204 -0.02035,0.20734 -0.05088,0.41341 -0.09159,0.61694 -0.04071,0.20352 -0.09031,0.40577 -0.151372,0.60422 -0.05979,0.19969 -0.129748,0.39432 -0.209885,0.58638 -0.08014,0.1921 -0.167911,0.38036 -0.265858,0.56352 -0.09922,0.18318 -0.204799,0.36128 -0.320555,0.53425 -0.115752,0.17302 -0.239141,0.34091 -0.371433,0.5012 -0.132292,0.16028 -0.272217,0.31418 -0.418502,0.46176 -0.147555,0.14628 -0.301473,0.28621 -0.461751,0.41848 -0.160274,0.13231 -0.328185,0.2557 -0.501182,0.37143 -0.172997,0.11577 -0.35108,0.22134 -0.534254,0.32056 -0.183173,0.098 -0.371437,0.18572 -0.563513,0.26586 -0.19208,0.0801 -0.3867,0.15012 -0.58641,0.20991 -0.198439,0.0598 -0.400692,0.11065 -0.604218,0.15135 -0.203526,0.0407 -0.409596,0.0713 -0.616938,0.0916 -0.206073,0.0202 -0.414685,0.0306 -0.622028,0.0306 -0.207343,0 -0.415956,-0.0101 -0.622028,-0.0306 -0.20734,-0.0202 -0.413412,-0.0509 -0.616938,-0.0916 -0.203521,-0.0407 -0.405774,-0.0916 -0.604214,-0.15135 -0.199709,-0.0598 -0.39433,-0.12978 -0.586409,-0.20991 -0.192077,-0.0801 -0.380341,-0.16791 -0.563514,-0.26586 -0.183174,-0.0992 -0.361257,-0.20479 -0.534255,-0.32056 -0.172997,-0.11573 -0.340908,-0.23912 -0.501182,-0.37143 -0.160277,-0.13227 -0.314195,-0.2722 -0.46175,-0.41848 -0.146285,-0.14758 -0.28621,-0.30148 -0.418502,-0.46176 -0.132292,-0.16029 -0.255677,-0.32818 -0.371433,-0.5012 -0.115756,-0.17297 -0.221336,-0.35107 -0.320556,-0.53425 -0.09795,-0.18316 -0.185716,-0.37142 -0.265853,-0.56352 -0.08014,-0.19206 -0.150102,-0.38669 -0.20989,-0.58638 -0.06106,-0.19848 -0.110666,-0.40073 -0.151371,-0.60426 -0.04071,-0.20353 -0.07123,-0.40959 -0.09159,-0.61693 -0.02035,-0.20606 -0.03051,-0.41467 -0.03051,-0.62201 0,-0.20737 0.01016,-0.41598 0.03051,-0.62204 0.02035,-0.20734 0.05088,-0.41341 0.09159,-0.61693 0.04071,-0.20353 0.09031,-0.40578 0.151371,-0.60422 0.05979,-0.19972 0.129749,-0.39433 0.20989,-0.58642 0.08013,-0.19206 0.167907,-0.38035 0.265853,-0.56352 0.09922,-0.18318 0.2048,-0.36124 0.320556,-0.53425 0.115756,-0.17299 0.239141,-0.34091 0.371433,-0.50117 0.132292,-0.16027 0.272217,-0.3142 0.418502,-0.46176 0.147555,-0.14627 0.301473,-0.2862 0.46175,-0.41851 0.160274,-0.13227 0.328185,-0.25566 0.501182,-0.37142 0.172998,-0.11578 0.351081,-0.22135 0.534255,-0.32057 0.183173,-0.0979 0.371437,-0.18571 0.563514,-0.26586 0.192079,-0.0801 0.3867,-0.15008 0.586409,-0.20987 0.19844,-0.061 0.400693,-0.11066 0.604219,-0.15135 0.203526,-0.0407 0.409599,-0.0713 0.616938,-0.0916 0.206073,-0.0202 0.414685,-0.0306 0.622028,-0.0306 0.207343,0 0.415955,0.0101 0.622028,0.0306 0.207343,0.0202 0.413412,0.0509 0.616938,0.0916 0.203526,0.0407 0.405779,0.0903 0.604218,0.15135 0.19971,0.0598 0.39433,0.12974 0.58641,0.20987 0.192076,0.0801 0.38034,0.16794 0.563513,0.26586 0.183174,0.0992 0.361257,0.20479 0.534254,0.32057 0.172997,0.11576 0.340908,0.23915 0.501183,0.37142 0.160277,0.13231 0.314195,0.27224 0.46175,0.41851 0.146285,0.14756 0.28621,0.30149 0.418502,0.46176 0.132292,0.16026 0.255681,0.32818 0.371434,0.50117 0.115756,0.17301 0.221335,0.35107 0.320555,0.53425 0.09795,0.18317 0.185717,0.37146 0.265857,0.56352 0.08014,0.19209 0.150098,0.3867 0.209885,0.58642 0.06106,0.19844 0.110667,0.40069 0.151373,0.60422 0.04071,0.20352 0.07123,0.40959 0.09159,0.61693 0.02035,0.20606 0.03052,0.41467 0.03052,0.62204 z m 0,0"
       id="path10915"
       inkscape:connector-curvature="0" />
    <path
       style="fill:#00a6e3;fill-opacity:1;fill-rule:nonzero;stroke:none;stroke-width:0.32564178"
       d="m 22.062191,290.64997 c 0,0.33711 -0.03307,0.67037 -0.09795,1.00109 -0.06615,0.32945 -0.164095,0.65001 -0.29257,0.96165 -0.128475,0.31167 -0.286206,0.60677 -0.47447,0.88663 -0.18699,0.27985 -0.399419,0.53936 -0.63729,0.77721 -0.237872,0.23788 -0.497366,0.45029 -0.777216,0.63731 -0.279847,0.18825 -0.57496,0.346 -0.886612,0.47446 -0.311649,0.12846 -0.632202,0.22642 -0.96166,0.29256 -0.330731,0.0649 -0.664003,0.098 -1.001095,0.098 -0.33709,0 -0.670363,-0.0331 -1.001094,-0.098 -0.329459,-0.0662 -0.65001,-0.1641 -0.961659,-0.29256 -0.311645,-0.12846 -0.606759,-0.28621 -0.886609,-0.47446 -0.279847,-0.18702 -0.539344,-0.39943 -0.777216,-0.63731 -0.237872,-0.23785 -0.450301,-0.49736 -0.637291,-0.77721 -0.188259,-0.27986 -0.345993,-0.57496 -0.474468,-0.88663 -0.128476,-0.31164 -0.226423,-0.6322 -0.29257,-0.96165 -0.06487,-0.33072 -0.09795,-0.66398 -0.09795,-1.00109 0,-0.3371 0.03307,-0.67037 0.09795,-1.00109 0.06615,-0.32945 0.164094,-0.65001 0.29257,-0.96165 0.128475,-0.31167 0.286209,-0.60677 0.474468,-0.88662 0.18699,-0.27986 0.399419,-0.53933 0.637291,-0.77721 0.237872,-0.23788 0.497369,-0.4503 0.777216,-0.63728 0.27985,-0.18829 0.574964,-0.346 0.886613,-0.4745 0.311649,-0.12846 0.6322,-0.22641 0.961659,-0.29255 0.330731,-0.0649 0.664004,-0.098 1.001094,-0.098 0.337092,0 0.670364,0.0331 1.001095,0.098 0.329458,0.0662 0.650011,0.16409 0.96166,0.29255 0.311652,0.1285 0.606765,0.28621 0.886612,0.4745 0.27985,0.18698 0.539344,0.3994 0.777216,0.63728 0.237871,0.23788 0.4503,0.49735 0.63729,0.77721 0.188264,0.27985 0.345995,0.57495 0.47447,0.88662 0.128475,0.31164 0.226422,0.6322 0.29257,0.96165 0.06487,0.33072 0.09795,0.66399 0.09795,1.00109 z m 0,0"
       id="path10917"
       inkscape:connector-curvature="0" />
    <g
       style="fill:#ffffff;fill-opacity:1"
       id="g10959"
       transform="matrix(1.676965,0,0,1.676965,-80.969973,-766.54012)">
      <g
         id="use10957"
         transform="matrix(0.26458333,0,0,0.26458333,55.999996,632.79995)">
        <path
           inkscape:connector-curvature="0"
           id="path827"
           d="m 13.4375,-4.953125 c 1.050781,-1.125 1.578125,-2.472656 1.578125,-4.046875 0,-1.238281 -0.351563,-2.363281 -1.046875,-3.375 -0.6875,-1.007812 -1.59375,-1.738281 -2.71875,-2.1875 v 0.328125 c 0,0.398437 -0.152344,0.742187 -0.453125,1.03125 -0.304687,0.292969 -0.65625,0.4375 -1.0625,0.4375 H 8.265625 V -11.25 c 0,0.210938 -0.078125,0.386719 -0.234375,0.53125 -0.148438,0.136719 -0.328125,0.203125 -0.546875,0.203125 H 6.015625 V -9 h 4.5 c 0.207031,0 0.378906,0.074219 0.515625,0.21875 0.144531,0.136719 0.21875,0.308594 0.21875,0.515625 v 2.25 h 0.734375 c 0.707031,0 1.191406,0.355469 1.453125,1.0625 z M 8.265625,-3.0625 V -4.5 c -0.398437,0 -0.75,-0.148438 -1.0625,-0.453125 C 6.898438,-5.265625 6.75,-5.617188 6.75,-6.015625 V -6.75 l -3.578125,-3.59375 c -0.125,0.46875 -0.1875,0.917969 -0.1875,1.34375 0,1.523438 0.507813,2.84375 1.53125,3.96875 1.019531,1.125 2.269531,1.78125 3.75,1.96875 z m -4.5625,-11.21875 C 5.171875,-15.75 6.9375,-16.484375 9,-16.484375 c 2.0625,0 3.820312,0.734375 5.28125,2.203125 1.46875,1.460938 2.203125,3.21875 2.203125,5.28125 0,2.0625 -0.734375,3.828125 -2.203125,5.296875 -1.460938,1.460937 -3.21875,2.1875 -5.28125,2.1875 -2.0625,0 -3.828125,-0.726563 -5.296875,-2.1875 C 2.242188,-5.171875 1.515625,-6.9375 1.515625,-9 c 0,-2.0625 0.726563,-3.820312 2.1875,-5.28125 z m 0,0"
           style="stroke:none" />
      </g>
    </g>
    <g
       id="g10951"
       transform="matrix(0.34141898,0,0,0.34141898,-42.137962,202.6518)">
      <path
         inkscape:connector-curvature="0"
         id="path10927"
         d="m 131.02344,259.57812 h 16.43359 c 0.20703,0 0.37891,0.0742 0.52344,0.21875 0.14453,0.14453 0.21484,0.31641 0.21484,0.51953 v 0.44922 c 0,0.20313 -0.0703,0.37891 -0.21484,0.52344 -0.14453,0.14062 -0.31641,0.21484 -0.52344,0.21484 h -16.43359 c -0.20313,0 -0.375,-0.0742 -0.51953,-0.21484 -0.14453,-0.14453 -0.21485,-0.32031 -0.21485,-0.52344 v -0.44922 c 0,-0.20312 0.0703,-0.375 0.21485,-0.51953 0.14453,-0.14453 0.3164,-0.21875 0.51953,-0.21875 z m 0,0"
         style="fill:#00a6e3;fill-opacity:1;fill-rule:nonzero;stroke:#ffffff;stroke-width:0.01875;stroke-linecap:butt;stroke-linejoin:miter;stroke-miterlimit:4;stroke-opacity:1" />
      <path
         inkscape:connector-curvature="0"
         id="path10929"
         d="m 136.30078,259 h 6.01172 v 3.4375 h -6.01172 z m 0,0"
         style="fill:#00a6e3;fill-opacity:1;fill-rule:nonzero;stroke:none" />
      <path
         inkscape:connector-curvature="0"
         id="path10931"
         d="m 138.34375,256.41406 h 1.82812 v 3.01563 h -1.82812 z m 0,0"
         style="fill:#00a6e3;fill-opacity:1;fill-rule:nonzero;stroke:none" />
      <path
         inkscape:connector-curvature="0"
         id="path10933"
         d="m 131.49219,250.86719 h 15.55078 c 0.15625,0 0.30859,0.0312 0.44922,0.0898 0.14453,0.0625 0.27343,0.14453 0.38281,0.25781 0.11328,0.10938 0.19531,0.23828 0.25781,0.38282 0.0586,0.14453 0.0898,0.29296 0.0898,0.44921 v 2.65625 c 0,0.15625 -0.0312,0.30469 -0.0898,0.44922 -0.0625,0.14453 -0.14453,0.27344 -0.25781,0.38282 -0.10938,0.10937 -0.23828,0.19531 -0.38281,0.2539 -0.14063,0.0625 -0.29297,0.0898 -0.44922,0.0898 h -15.55078 c -0.15625,0 -0.30469,-0.0273 -0.44922,-0.0898 -0.14453,-0.0586 -0.27344,-0.14453 -0.38281,-0.2539 -0.10938,-0.10938 -0.19532,-0.23829 -0.25782,-0.38282 -0.0586,-0.14453 -0.0859,-0.29297 -0.0859,-0.44922 v -2.65625 c 0,-0.15625 0.0273,-0.30468 0.0859,-0.44921 0.0625,-0.14454 0.14844,-0.27344 0.25782,-0.38282 0.10937,-0.11328 0.23828,-0.19531 0.38281,-0.25781 0.14453,-0.0586 0.29297,-0.0898 0.44922,-0.0898 z m 0,0"
         style="fill:#00a6e3;fill-opacity:1;fill-rule:nonzero;stroke:none" />
      <path
         inkscape:connector-curvature="0"
         id="path10935"
         d="m 132.60937,252.61328 c 0,0.17578 -0.0625,0.32813 -0.1875,0.45313 -0.125,0.125 -0.27734,0.1914 -0.45312,0.1914 -0.17969,0 -0.33203,-0.0664 -0.45703,-0.1914 -0.125,-0.125 -0.1875,-0.27735 -0.1875,-0.45313 0,-0.17969 0.0625,-0.33203 0.1875,-0.45703 0.125,-0.125 0.27734,-0.1875 0.45703,-0.1875 0.17578,0 0.32812,0.0625 0.45312,0.1875 0.125,0.125 0.1875,0.27734 0.1875,0.45703 z m 0,0"
         style="fill:#ffffff;fill-opacity:1;fill-rule:nonzero;stroke:none" />
      <path
         inkscape:connector-curvature="0"
         id="path10937"
         d="m 141.53125,253.41406 h 4.41797 v 1.42578 h -4.41797 z m 0,0"
         style="fill:#ffffff;fill-opacity:1;fill-rule:nonzero;stroke:#ffffff;stroke-width:0.009;stroke-linecap:butt;stroke-linejoin:miter;stroke-miterlimit:4;stroke-opacity:1" />
      <path
         inkscape:connector-curvature="0"
         id="path10939"
         d="m 131.49219,245.26953 h 15.55078 c 0.15625,0 0.30859,0.0312 0.44922,0.0898 0.14453,0.0586 0.27343,0.14454 0.38281,0.25391 0.11328,0.11328 0.19531,0.23828 0.25781,0.38281 0.0586,0.14453 0.0898,0.29688 0.0898,0.45313 v 2.65234 c 0,0.15625 -0.0312,0.3086 -0.0898,0.45313 -0.0625,0.14453 -0.14453,0.26953 -0.25781,0.38281 -0.10938,0.10937 -0.23828,0.19531 -0.38281,0.25391 -0.14063,0.0586 -0.29297,0.0898 -0.44922,0.0898 h -15.55078 c -0.15625,0 -0.30469,-0.0312 -0.44922,-0.0898 -0.14453,-0.0586 -0.27344,-0.14454 -0.38281,-0.25391 -0.10938,-0.11328 -0.19532,-0.23828 -0.25782,-0.38281 -0.0586,-0.14453 -0.0859,-0.29688 -0.0859,-0.45313 v -2.65234 c 0,-0.15625 0.0273,-0.3086 0.0859,-0.45313 0.0625,-0.14453 0.14844,-0.26953 0.25782,-0.38281 0.10937,-0.10937 0.23828,-0.19531 0.38281,-0.25391 0.14453,-0.0586 0.29297,-0.0898 0.44922,-0.0898 z m 0,0"
         style="fill:#00a6e3;fill-opacity:1;fill-rule:nonzero;stroke:none" />
      <path
         inkscape:connector-curvature="0"
         id="path10941"
         d="m 132.60937,247.01562 c 0,0.17579 -0.0625,0.32813 -0.1875,0.45313 -0.125,0.125 -0.27734,0.1875 -0.45312,0.1875 -0.17969,0 -0.33203,-0.0625 -0.45703,-0.1875 -0.125,-0.125 -0.1875,-0.27734 -0.1875,-0.45313 0,-0.17968 0.0625,-0.33203 0.1875,-0.45703 0.125,-0.125 0.27734,-0.1875 0.45703,-0.1875 0.17578,0 0.32812,0.0625 0.45312,0.1875 0.125,0.125 0.1875,0.27735 0.1875,0.45703 z m 0,0"
         style="fill:#ffffff;fill-opacity:1;fill-rule:nonzero;stroke:none" />
      <path
         inkscape:connector-curvature="0"
         id="path10943"
         d="m 141.53125,247.8125 h 4.41797 v 1.42968 h -4.41797 z m 0,0"
         style="fill:#ffffff;fill-opacity:1;fill-rule:nonzero;stroke:#ffffff;stroke-width:0.009;stroke-linecap:butt;stroke-linejoin:miter;stroke-miterlimit:4;stroke-opacity:1" />
      <path
         inkscape:connector-curvature="0"
         id="path10945"
         d="m 131.49219,239.55469 h 15.55078 c 0.15625,0 0.30859,0.0312 0.44922,0.0898 0.14453,0.0586 0.27343,0.14453 0.38281,0.25391 0.11328,0.11328 0.19531,0.23828 0.25781,0.38281 0.0586,0.14453 0.0898,0.29687 0.0898,0.45312 v 2.65235 c 0,0.15625 -0.0312,0.30859 -0.0898,0.45312 -0.0625,0.14453 -0.14453,0.26953 -0.25781,0.38282 -0.10938,0.10937 -0.23828,0.19531 -0.38281,0.2539 -0.14063,0.0586 -0.29297,0.0898 -0.44922,0.0898 h -15.55078 c -0.15625,0 -0.30469,-0.0312 -0.44922,-0.0898 -0.14453,-0.0586 -0.27344,-0.14453 -0.38281,-0.2539 -0.10938,-0.11329 -0.19532,-0.23829 -0.25782,-0.38282 -0.0586,-0.14453 -0.0859,-0.29687 -0.0859,-0.45312 v -2.65235 c 0,-0.15625 0.0273,-0.30859 0.0859,-0.45312 0.0625,-0.14453 0.14844,-0.26953 0.25782,-0.38281 0.10937,-0.10938 0.23828,-0.19532 0.38281,-0.25391 0.14453,-0.0586 0.29297,-0.0898 0.44922,-0.0898 z m 0,0"
         style="fill:#00a6e3;fill-opacity:1;fill-rule:nonzero;stroke:none" />
      <path
         inkscape:connector-curvature="0"
         id="path10947"
         d="m 132.60937,241.29687 c 0,0.17969 -0.0625,0.33204 -0.1875,0.45704 -0.125,0.125 -0.27734,0.1875 -0.45312,0.1875 -0.17969,0 -0.33203,-0.0625 -0.45703,-0.1875 -0.125,-0.125 -0.1875,-0.27735 -0.1875,-0.45704 0,-0.17578 0.0625,-0.32812 0.1875,-0.45312 0.125,-0.125 0.27734,-0.1875 0.45703,-0.1875 0.17578,0 0.32812,0.0625 0.45312,0.1875 0.125,0.125 0.1875,0.27734 0.1875,0.45312 z m 0,0"
         style="fill:#ffffff;fill-opacity:1;fill-rule:nonzero;stroke:none" />
      <path
         inkscape:connector-curvature="0"
         id="path10949"
         d="m 141.53125,242.09765 h 4.41797 v 1.42969 h -4.41797 z m 0,0"
         style="fill:#ffffff;fill-opacity:1;fill-rule:nonzero;stroke:#ffffff;stroke-width:0.009;stroke-linecap:butt;stroke-linejoin:miter;stroke-miterlimit:4;stroke-opacity:1" />
    </g>
  </g>
</svg>
