<?xml version="1.0" encoding="UTF-8" standalone="no"?>
<!-- Created with Inkscape (http://www.inkscape.org/) -->

<svg
   xmlns:dc="http://purl.org/dc/elements/1.1/"
   xmlns:cc="http://creativecommons.org/ns#"
   xmlns:rdf="http://www.w3.org/1999/02/22-rdf-syntax-ns#"
   xmlns:svg="http://www.w3.org/2000/svg"
   xmlns="http://www.w3.org/2000/svg"
   xmlns:sodipodi="http://sodipodi.sourceforge.net/DTD/sodipodi-0.dtd"
   xmlns:inkscape="http://www.inkscape.org/namespaces/inkscape"
   width="128"
   height="48"
   viewBox="0 0 33.866665 12.700001"
   version="1.1"
   id="svg2202"
   inkscape:version="0.92.4 (5da689c313, 2019-01-14)"
   sodipodi:docname="timeline-checkin.svg">
  <defs
     id="defs2196" />
  <sodipodi:namedview
     id="base"
     pagecolor="#ffffff"
     bordercolor="#666666"
     borderopacity="1.0"
     inkscape:pageopacity="0.0"
     inkscape:pageshadow="2"
     inkscape:zoom="7.9195959"
     inkscape:cx="44.589991"
     inkscape:cy="22.595828"
     inkscape:document-units="mm"
     inkscape:current-layer="layer1"
     showgrid="false"
     units="px"
     inkscape:window-width="1920"
     inkscape:window-height="1016"
     inkscape:window-x="0"
     inkscape:window-y="34"
     inkscape:window-maximized="1" />
  <metadata
     id="metadata2199">
    <rdf:RDF>
      <cc:Work
         rdf:about="">
        <dc:format>image/svg+xml</dc:format>
        <dc:type
           rdf:resource="http://purl.org/dc/dcmitype/StillImage" />
        <dc:title></dc:title>
      </cc:Work>
    </rdf:RDF>
  </metadata>
  <g
     inkscape:label="Layer 1"
     inkscape:groupmode="layer"
     id="layer1"
     transform="translate(0,-284.29999)">
    <path
       style="fill:#ffffff;fill-opacity:1;fill-rule:nonzero;stroke:none;stroke-width:0.32563794"
       d="m 23.283325,290.64993 c 0,0.20733 -0.01015,0.41594 -0.03055,0.62203 -0.0203,0.20733 -0.05086,0.41339 -0.09157,0.61692 -0.04071,0.20351 -0.09028,0.40576 -0.151367,0.60422 -0.05981,0.19968 -0.129747,0.3943 -0.209888,0.58636 -0.08013,0.19209 -0.167908,0.38035 -0.265855,0.56351 -0.09922,0.18318 -0.204793,0.36126 -0.320557,0.53425 -0.115754,0.17301 -0.239132,0.3409 -0.371427,0.50119 -0.132295,0.16027 -0.272215,0.31416 -0.418504,0.46174 -0.147553,0.14628 -0.301468,0.28621 -0.46175,0.41848 -0.160274,0.13231 -0.328181,0.25569 -0.501175,0.37142 -0.172994,0.11576 -0.351083,0.22134 -0.534258,0.32056 -0.183175,0.0979 -0.371427,0.18571 -0.56351,0.26584 -0.192074,0.0802 -0.386696,0.15013 -0.586412,0.2099 -0.198434,0.061 -0.400679,0.11066 -0.604208,0.15137 -0.20353,0.0407 -0.409597,0.0713 -0.616938,0.0915 -0.206067,0.0203 -0.414683,0.0307 -0.622024,0.0307 -0.207341,0 -0.415957,-0.0101 -0.622024,-0.0307 -0.207341,-0.0202 -0.413408,-0.0509 -0.616938,-0.0915 -0.20352,-0.0407 -0.405774,-0.0902 -0.604208,-0.15137 -0.199707,-0.0598 -0.394338,-0.12976 -0.586412,-0.2099 -0.192074,-0.0802 -0.380335,-0.1679 -0.563511,-0.26584 -0.183174,-0.0992 -0.361254,-0.2048 -0.534248,-0.32056 -0.173005,-0.11573 -0.340912,-0.23912 -0.501186,-0.37142 -0.160274,-0.13227 -0.314197,-0.2722 -0.46175,-0.41848 -0.14628,-0.14757 -0.286209,-0.30146 -0.418495,-0.46174 -0.132295,-0.16029 -0.255683,-0.32818 -0.371437,-0.50119 -0.115753,-0.17299 -0.221335,-0.35107 -0.320556,-0.53425 -0.09795,-0.18316 -0.185714,-0.37142 -0.265855,-0.56351 -0.08012,-0.19207 -0.150092,-0.38669 -0.20988,-0.58636 -0.06111,-0.19848 -0.110668,-0.40072 -0.151375,-0.60425 -0.04071,-0.20353 -0.07126,-0.40958 -0.09157,-0.61692 -0.02031,-0.20605 -0.03055,-0.41466 -0.03055,-0.62203 0,-0.20733 0.01015,-0.41593 0.03055,-0.62199 0.0204,-0.20734 0.05086,-0.4134 0.09157,-0.61691 0.04071,-0.20352 0.09028,-0.40578 0.151375,-0.60422 0.05981,-0.19972 0.129748,-0.39432 0.20988,-0.58641 0.08012,-0.19206 0.167907,-0.38035 0.265855,-0.56352 0.09922,-0.18317 0.204803,-0.36123 0.320556,-0.53423 0.115754,-0.17298 0.239142,-0.34092 0.371437,-0.50116 0.132286,-0.16028 0.272215,-0.31421 0.418495,-0.46175 0.147553,-0.14626 0.301476,-0.28619 0.46175,-0.4185 0.160274,-0.13229 0.328181,-0.25566 0.501184,-0.37143 0.172994,-0.11575 0.351074,-0.22134 0.534248,-0.32055 0.183176,-0.0979 0.371437,-0.18571 0.563511,-0.26584 0.192074,-0.0802 0.386705,-0.1501 0.586412,-0.20988 0.198434,-0.061 0.400688,-0.11066 0.604218,-0.15136 0.20352,-0.0407 0.409587,-0.0713 0.616928,-0.0915 0.206067,-0.0202 0.414683,-0.0306 0.622033,-0.0306 0.207341,0 0.415948,0.0101 0.622015,0.0306 0.207341,0.0203 0.413417,0.0509 0.616947,0.0915 0.20352,0.0407 0.405774,0.0902 0.604208,0.15136 0.199717,0.0598 0.394329,0.12973 0.586412,0.20988 0.192074,0.0802 0.380335,0.16793 0.563511,0.26584 0.183165,0.0992 0.361254,0.2048 0.534248,0.32055 0.173003,0.11577 0.34091,0.23914 0.501184,0.37143 0.160273,0.13231 0.314196,0.27224 0.46175,0.4185 0.14628,0.14754 0.286209,0.30147 0.418505,0.46175 0.132285,0.16024 0.255673,0.32818 0.371426,0.50116 0.115755,0.173 0.221335,0.35106 0.320557,0.53423 0.09794,0.18317 0.185713,0.37146 0.265855,0.56352 0.08013,0.19209 0.150092,0.38669 0.209879,0.58641 0.06111,0.19844 0.110669,0.4007 0.151376,0.60422 0.04071,0.20351 0.07126,0.40957 0.09157,0.61691 0.0204,0.20606 0.03055,0.41466 0.03055,0.62199 z m 0,0"
       id="path10889"
       inkscape:connector-curvature="0" />
    <path
       style="fill:#aeb328;fill-opacity:1;fill-rule:nonzero;stroke:none;stroke-width:0.32564065"
       d="m 22.062179,290.64982 c 0,0.33711 -0.03304,0.67037 -0.09794,1.0011 -0.06618,0.32945 -0.164095,0.65001 -0.292569,0.96163 -0.128474,0.31169 -0.286209,0.60677 -0.474471,0.88663 -0.186987,0.27986 -0.399414,0.53933 -0.637282,0.7772 -0.237876,0.23789 -0.497371,0.4503 -0.77722,0.63729 -0.279849,0.18829 -0.574956,0.34599 -0.886605,0.47449 -0.311649,0.12846 -0.632197,0.22641 -0.961661,0.29256 -0.330729,0.0649 -0.663995,0.0979 -1.001085,0.0979 -0.337089,0 -0.670365,-0.033 -1.001094,-0.0979 -0.329455,-0.0661 -0.650002,-0.1641 -0.961661,-0.29256 -0.311648,-0.1285 -0.606756,-0.28621 -0.886605,-0.47449 -0.279852,-0.18699 -0.539347,-0.3994 -0.777214,-0.63729 -0.237868,-0.23787 -0.450295,-0.49734 -0.637292,-0.7772 -0.188261,-0.27986 -0.345987,-0.57494 -0.474461,-0.88663 -0.128483,-0.31162 -0.22643,-0.63219 -0.292569,-0.96163 -0.06489,-0.33072 -0.09795,-0.66399 -0.09795,-1.0011 0,-0.3371 0.03305,-0.67036 0.09795,-1.00108 0.06619,-0.32944 0.164086,-0.65001 0.292569,-0.96166 0.128474,-0.31166 0.2862,-0.60676 0.474461,-0.88661 0.186997,-0.27985 0.399424,-0.53932 0.637292,-0.7772 0.237867,-0.23789 0.497362,-0.4503 0.777211,-0.63729 0.279849,-0.18828 0.574957,-0.34599 0.886605,-0.47449 0.311659,-0.12846 0.632206,-0.2264 0.961661,-0.29255 0.330729,-0.0649 0.664005,-0.0979 1.001094,-0.0979 0.33709,0 0.670356,0.033 1.001085,0.0979 0.329464,0.0661 0.650012,0.16409 0.961661,0.29255 0.311649,0.1285 0.606756,0.28622 0.886605,0.47449 0.279849,0.18699 0.539344,0.3994 0.77722,0.63729 0.237868,0.23788 0.450295,0.49735 0.637282,0.7772 0.188262,0.27985 0.345997,0.57495 0.474471,0.88661 0.128474,0.31165 0.226422,0.63222 0.292569,0.96166 0.06489,0.33072 0.09794,0.66398 0.09794,1.00108 z m 0,0"
       id="path10891"
       inkscape:connector-curvature="0" />
    <path
       inkscape:connector-curvature="0"
       d="M 19.076693,287.9238 H 17.79731 c -0.128557,-0.35505 -0.46524,-0.61217 -0.863132,-0.61217 -0.3979,0 -0.734574,0.25712 -0.863131,0.61217 h -1.279383 c -0.336683,0 -0.612157,0.27546 -0.612157,0.61212 v 4.28505 c 0,0.33667 0.275474,0.61214 0.612157,0.61214 h 4.285029 c 0.336683,0 0.612147,-0.27547 0.612147,-0.61214 v -4.28505 c 0,-0.33666 -0.275464,-0.61212 -0.612147,-0.61212 z m -2.142515,0 c 0.168341,0 0.306073,0.1377 0.306073,0.30606 0,0.16832 -0.137732,0.30606 -0.306073,0.30606 -0.168341,0 -0.306073,-0.13774 -0.306073,-0.30606 0,-0.16836 0.137732,-0.30606 0.306073,-0.30606 z m -0.612147,4.28501 -1.224303,-1.22428 0.431566,-0.43158 0.792737,0.78969 2.017022,-2.01703 0.431567,0.43461 z"
       id="path4"
       style="fill:#ffffff;fill-opacity:1;stroke-width:0.30607399" />
  </g>
</svg>
