<?xml version="1.0" encoding="UTF-8" standalone="no"?>
<!-- Created with Inkscape (http://www.inkscape.org/) -->

<svg
   xmlns:dc="http://purl.org/dc/elements/1.1/"
   xmlns:cc="http://creativecommons.org/ns#"
   xmlns:rdf="http://www.w3.org/1999/02/22-rdf-syntax-ns#"
   xmlns:svg="http://www.w3.org/2000/svg"
   xmlns="http://www.w3.org/2000/svg"
   xmlns:sodipodi="http://sodipodi.sourceforge.net/DTD/sodipodi-0.dtd"
   xmlns:inkscape="http://www.inkscape.org/namespaces/inkscape"
   width="128"
   height="48"
   viewBox="0 0 33.866665 12.7"
   version="1.1"
   id="svg3957"
   inkscape:version="0.92.4 (5da689c313, 2019-01-14)"
   sodipodi:docname="timeline-settings.svg">
  <defs
     id="defs3951" />
  <sodipodi:namedview
     id="base"
     pagecolor="#ffffff"
     bordercolor="#666666"
     borderopacity="1.0"
     inkscape:pageopacity="0.0"
     inkscape:pageshadow="2"
     inkscape:zoom="5.6"
     inkscape:cx="47.714047"
     inkscape:cy="18.789796"
     inkscape:document-units="px"
     inkscape:current-layer="layer1"
     showgrid="false"
     units="px"
     inkscape:window-width="1920"
     inkscape:window-height="1016"
     inkscape:window-x="0"
     inkscape:window-y="34"
     inkscape:window-maximized="1" />
  <metadata
     id="metadata3954">
    <rdf:RDF>
      <cc:Work
         rdf:about="">
        <dc:format>image/svg+xml</dc:format>
        <dc:type
           rdf:resource="http://purl.org/dc/dcmitype/StillImage" />
        <dc:title></dc:title>
      </cc:Work>
    </rdf:RDF>
  </metadata>
  <g
     inkscape:label="Layer 1"
     inkscape:groupmode="layer"
     id="layer1"
     transform="translate(0,-284.29998)">
    <path
       style="fill:#ffffff;fill-opacity:1;fill-rule:nonzero;stroke:none;stroke-width:0.32564178"
       d="m 23.28333,290.64997 c 0,0.20734 -0.01016,0.41595 -0.03052,0.62204 -0.02035,0.20734 -0.05088,0.41341 -0.09159,0.61694 -0.04071,0.20352 -0.09031,0.40577 -0.151372,0.60422 -0.05979,0.19969 -0.129748,0.39432 -0.209885,0.58638 -0.08014,0.1921 -0.167911,0.38036 -0.265858,0.56352 -0.09922,0.18318 -0.204799,0.36128 -0.320555,0.53425 -0.115752,0.17302 -0.239141,0.34091 -0.371433,0.5012 -0.132292,0.16028 -0.272217,0.31418 -0.418502,0.46176 -0.147555,0.14628 -0.301473,0.28621 -0.461751,0.41848 -0.160274,0.13231 -0.328185,0.2557 -0.501182,0.37143 -0.172997,0.11577 -0.35108,0.22134 -0.534254,0.32056 -0.183173,0.098 -0.371437,0.18572 -0.563513,0.26586 -0.19208,0.0801 -0.3867,0.15012 -0.58641,0.20991 -0.198439,0.0598 -0.400692,0.11065 -0.604218,0.15135 -0.203526,0.0407 -0.409596,0.0713 -0.616938,0.0916 -0.206073,0.0202 -0.414685,0.0306 -0.622028,0.0306 -0.207343,0 -0.415956,-0.0101 -0.622028,-0.0306 -0.20734,-0.0202 -0.413412,-0.0509 -0.616938,-0.0916 -0.203521,-0.0407 -0.405774,-0.0916 -0.604214,-0.15135 -0.199709,-0.0598 -0.39433,-0.12978 -0.586409,-0.20991 -0.192077,-0.0801 -0.380341,-0.16791 -0.563514,-0.26586 -0.183174,-0.0992 -0.361257,-0.20479 -0.534255,-0.32056 -0.172997,-0.11573 -0.340908,-0.23912 -0.501182,-0.37143 -0.160277,-0.13227 -0.314195,-0.2722 -0.46175,-0.41848 -0.146285,-0.14758 -0.28621,-0.30148 -0.418502,-0.46176 -0.132292,-0.16029 -0.255677,-0.32818 -0.371433,-0.5012 -0.115756,-0.17297 -0.221336,-0.35107 -0.320556,-0.53425 -0.09795,-0.18316 -0.185716,-0.37142 -0.265853,-0.56352 -0.08014,-0.19206 -0.150102,-0.38669 -0.20989,-0.58638 -0.06106,-0.19848 -0.110666,-0.40073 -0.151371,-0.60426 -0.04071,-0.20353 -0.07123,-0.40959 -0.09159,-0.61693 -0.02035,-0.20606 -0.03051,-0.41467 -0.03051,-0.62201 0,-0.20737 0.01016,-0.41598 0.03051,-0.62204 0.02035,-0.20734 0.05088,-0.41341 0.09159,-0.61693 0.04071,-0.20353 0.09031,-0.40578 0.151371,-0.60422 0.05979,-0.19972 0.129749,-0.39433 0.20989,-0.58642 0.08013,-0.19206 0.167907,-0.38035 0.265853,-0.56352 0.09922,-0.18318 0.2048,-0.36124 0.320556,-0.53425 0.115756,-0.17299 0.239141,-0.34091 0.371433,-0.50117 0.132292,-0.16027 0.272217,-0.3142 0.418502,-0.46176 0.147555,-0.14627 0.301473,-0.2862 0.46175,-0.41851 0.160274,-0.13227 0.328185,-0.25566 0.501182,-0.37142 0.172998,-0.11578 0.351081,-0.22135 0.534255,-0.32057 0.183173,-0.0979 0.371437,-0.18571 0.563514,-0.26586 0.192079,-0.0801 0.3867,-0.15008 0.586409,-0.20987 0.19844,-0.061 0.400693,-0.11066 0.604219,-0.15135 0.203526,-0.0407 0.409599,-0.0713 0.616938,-0.0916 0.206073,-0.0202 0.414685,-0.0306 0.622028,-0.0306 0.207343,0 0.415955,0.0101 0.622028,0.0306 0.207343,0.0202 0.413412,0.0509 0.616938,0.0916 0.203526,0.0407 0.405779,0.0903 0.604218,0.15135 0.19971,0.0598 0.39433,0.12974 0.58641,0.20987 0.192076,0.0801 0.38034,0.16794 0.563513,0.26586 0.183174,0.0992 0.361257,0.20479 0.534254,0.32057 0.172997,0.11576 0.340908,0.23915 0.501183,0.37142 0.160277,0.13231 0.314195,0.27224 0.46175,0.41851 0.146285,0.14756 0.28621,0.30149 0.418502,0.46176 0.132292,0.16026 0.255681,0.32818 0.371434,0.50117 0.115756,0.17301 0.221335,0.35107 0.320555,0.53425 0.09795,0.18317 0.185717,0.37146 0.265857,0.56352 0.08014,0.19209 0.150098,0.3867 0.209885,0.58642 0.06106,0.19844 0.110667,0.40069 0.151373,0.60422 0.04071,0.20352 0.07123,0.40959 0.09159,0.61693 0.02035,0.20606 0.03052,0.41467 0.03052,0.62204 z m 0,0"
       id="path10915"
       inkscape:connector-curvature="0" />
    <path
       style="fill:#00a6e3;fill-opacity:1;fill-rule:nonzero;stroke:none;stroke-width:0.32564178"
       d="m 22.062173,290.64997 c 0,0.33711 -0.03307,0.67037 -0.09795,1.00109 -0.06615,0.32945 -0.164095,0.65001 -0.29257,0.96165 -0.128475,0.31167 -0.286206,0.60677 -0.47447,0.88663 -0.18699,0.27985 -0.399419,0.53936 -0.63729,0.77721 -0.237872,0.23788 -0.497366,0.45029 -0.777216,0.63731 -0.279847,0.18825 -0.57496,0.346 -0.886612,0.47446 -0.311649,0.12846 -0.632202,0.22642 -0.96166,0.29256 -0.330731,0.0649 -0.664003,0.098 -1.001095,0.098 -0.33709,0 -0.670363,-0.0331 -1.001094,-0.098 -0.329459,-0.0662 -0.65001,-0.1641 -0.961659,-0.29256 -0.311645,-0.12846 -0.606759,-0.28621 -0.886608,-0.47446 -0.279848,-0.18702 -0.539345,-0.39943 -0.777217,-0.63731 -0.237871,-0.23785 -0.450301,-0.49736 -0.637291,-0.77721 -0.18826,-0.27986 -0.345994,-0.57496 -0.474469,-0.88663 -0.128476,-0.31164 -0.226422,-0.6322 -0.29257,-0.96165 -0.06487,-0.33072 -0.09795,-0.66398 -0.09795,-1.00109 0,-0.3371 0.03307,-0.67037 0.09795,-1.00109 0.06615,-0.32945 0.164094,-0.65001 0.29257,-0.96165 0.128475,-0.31167 0.286209,-0.60677 0.474469,-0.88662 0.18699,-0.27986 0.39942,-0.53933 0.637291,-0.77721 0.237872,-0.23788 0.497369,-0.4503 0.777217,-0.63728 0.279849,-0.18829 0.574963,-0.346 0.886612,-0.4745 0.311649,-0.12846 0.6322,-0.22641 0.961659,-0.29255 0.330731,-0.0649 0.664004,-0.098 1.001094,-0.098 0.337092,0 0.670364,0.0331 1.001095,0.098 0.329458,0.0662 0.650011,0.16409 0.96166,0.29255 0.311652,0.1285 0.606765,0.28621 0.886612,0.4745 0.27985,0.18698 0.539344,0.3994 0.777216,0.63728 0.237871,0.23788 0.4503,0.49735 0.63729,0.77721 0.188264,0.27985 0.345995,0.57495 0.47447,0.88662 0.128475,0.31164 0.226422,0.6322 0.29257,0.96165 0.06487,0.33072 0.09795,0.66399 0.09795,1.00109 z m 0,0"
       id="path10917"
       inkscape:connector-curvature="0" />
    <g
       style="fill:#ffffff;fill-opacity:1"
       id="g10921"
       transform="matrix(1.6053874,0,0,1.6053874,-76.791939,-183.12989)">
      <g
         id="use10919"
         transform="matrix(0.26458333,0,0,0.26458333,55.999996,297.49997)">
        <path
           inkscape:connector-curvature="0"
           id="path4516"
           d="m 7.125,-7.125 c 0.519531,0.511719 1.144531,0.765625 1.875,0.765625 0.726562,0 1.347656,-0.253906 1.859375,-0.765625 0.519531,-0.519531 0.78125,-1.144531 0.78125,-1.875 0,-0.726562 -0.261719,-1.347656 -0.78125,-1.859375 -0.511719,-0.519531 -1.132813,-0.78125 -1.859375,-0.78125 -0.730469,0 -1.355469,0.261719 -1.875,0.78125 C 6.613281,-10.347656 6.359375,-9.726562 6.359375,-9 c 0,0.730469 0.253906,1.355469 0.765625,1.875 z m 7.46875,-1.140625 1.578125,1.234375 c 0.164063,0.117188 0.191406,0.277344 0.07813,0.484375 l -1.51563,2.609375 c -0.09375,0.167969 -0.246094,0.214844 -0.453125,0.140625 l -1.875,-0.734375 c -0.492188,0.34375 -0.914062,0.589844 -1.265625,0.734375 l -0.28125,1.96875 c -0.04297,0.210937 -0.15625,0.3125 -0.34375,0.3125 h -3.03125 c -0.1875,0 -0.304687,-0.101563 -0.34375,-0.3125 l -0.28125,-1.96875 C 6.410156,-3.984375 5.988281,-4.226562 5.59375,-4.53125 l -1.859375,0.734375 c -0.21875,0.074219 -0.375,0.027344 -0.46875,-0.140625 l -1.5,-2.609375 c -0.125,-0.207031 -0.105469,-0.367187 0.0625,-0.484375 L 3.40625,-8.265625 C 3.382812,-8.429688 3.375,-8.675781 3.375,-9 c 0,-0.332031 0.00781,-0.578125 0.03125,-0.734375 L 1.828125,-10.96875 c -0.167969,-0.113281 -0.1875,-0.28125 -0.0625,-0.5 l 1.5,-2.59375 c 0.09375,-0.164062 0.25,-0.210938 0.46875,-0.140625 l 1.859375,0.734375 c 0.488281,-0.351562 0.910156,-0.597656 1.265625,-0.734375 l 0.28125,-1.96875 c 0.039063,-0.207031 0.15625,-0.3125 0.34375,-0.3125 h 3.03125 c 0.1875,0 0.300781,0.105469 0.34375,0.3125 l 0.28125,1.96875 c 0.445313,0.1875 0.867187,0.433594 1.265625,0.734375 l 1.875,-0.734375 c 0.207031,-0.07031 0.359375,-0.02344 0.453125,0.140625 L 16.25,-11.46875 c 0.113281,0.21875 0.08594,0.386719 -0.07813,0.5 l -1.57812,1.234375 C 14.613281,-9.578125 14.625,-9.332031 14.625,-9 c 0,0.324219 -0.01172,0.570312 -0.03125,0.734375 z m 0,0"
           style="stroke:none" />
      </g>
    </g>
  </g>
</svg>
