<?xml version="1.0" encoding="UTF-8" standalone="no"?>
<!-- Created with Inkscape (http://www.inkscape.org/) -->

<svg
   xmlns:dc="http://purl.org/dc/elements/1.1/"
   xmlns:cc="http://creativecommons.org/ns#"
   xmlns:rdf="http://www.w3.org/1999/02/22-rdf-syntax-ns#"
   xmlns:svg="http://www.w3.org/2000/svg"
   xmlns="http://www.w3.org/2000/svg"
   xmlns:sodipodi="http://sodipodi.sourceforge.net/DTD/sodipodi-0.dtd"
   xmlns:inkscape="http://www.inkscape.org/namespaces/inkscape"
   width="128"
   height="56"
   viewBox="0 0 33.866665 14.816667"
   version="1.1"
   id="svg2845"
   inkscape:version="0.92.4 (5da689c313, 2019-01-14)"
   sodipodi:docname="timeline-files.svg">
  <defs
     id="defs2839" />
  <sodipodi:namedview
     id="base"
     pagecolor="#ffffff"
     bordercolor="#666666"
     borderopacity="1.0"
     inkscape:pageopacity="0.0"
     inkscape:pageshadow="2"
     inkscape:zoom="11.2"
     inkscape:cx="62.631178"
     inkscape:cy="20.113332"
     inkscape:document-units="mm"
     inkscape:current-layer="layer1"
     showgrid="false"
     units="px"
     inkscape:window-width="1089"
     inkscape:window-height="737"
     inkscape:window-x="797"
     inkscape:window-y="206"
     inkscape:window-maximized="0" />
  <metadata
     id="metadata2842">
    <rdf:RDF>
      <cc:Work
         rdf:about="">
        <dc:format>image/svg+xml</dc:format>
        <dc:type
           rdf:resource="http://purl.org/dc/dcmitype/StillImage" />
        <dc:title />
      </cc:Work>
    </rdf:RDF>
  </metadata>
  <g
     inkscape:label="Layer 1"
     inkscape:groupmode="layer"
     id="layer1"
     transform="translate(0,-282.18331)">
    <path
       inkscape:connector-curvature="0"
       id="path10909"
       d="m 23.283336,289.45756 c 0,0.20734 -0.01016,0.41594 -0.03051,0.622 -0.02034,0.20735 -0.05088,0.41344 -0.09159,0.61697 -0.04071,0.20352 -0.09032,0.40578 -0.151375,0.60419 -0.05979,0.19972 -0.129746,0.39435 -0.209886,0.58642 -0.08014,0.1921 -0.167909,0.38035 -0.265855,0.56352 -0.09922,0.18318 -0.204798,0.36128 -0.320554,0.53425 -0.115757,0.17301 -0.239143,0.34091 -0.371435,0.5012 -0.132292,0.16028 -0.272217,0.31418 -0.418502,0.46172 -0.147555,0.14632 -0.301473,0.28621 -0.46175,0.41852 -0.160278,0.13227 -0.328186,0.25566 -0.501183,0.37143 -0.172998,0.11577 -0.351085,0.22134 -0.534258,0.32056 -0.183174,0.098 -0.371435,0.18572 -0.563511,0.26586 -0.19208,0.0801 -0.3867,0.15008 -0.586413,0.20987 -0.198436,0.061 -0.40069,0.11069 -0.604216,0.15139 -0.203526,0.0407 -0.409599,0.0713 -0.616941,0.0916 -0.20607,0.0202 -0.414683,0.0307 -0.622026,0.0307 -0.207343,0 -0.415959,-0.0101 -0.622028,-0.0307 -0.207343,-0.0202 -0.413412,-0.0509 -0.616938,-0.0916 -0.203526,-0.0407 -0.40578,-0.0904 -0.604219,-0.15139 -0.19971,-0.0598 -0.394333,-0.12974 -0.58641,-0.20987 -0.192076,-0.0801 -0.380341,-0.16791 -0.563514,-0.26586 -0.183174,-0.0992 -0.361258,-0.20479 -0.534255,-0.32056 -0.172997,-0.11577 -0.340908,-0.23916 -0.501186,-0.37143 -0.160274,-0.13231 -0.314192,-0.2722 -0.461748,-0.41852 -0.146284,-0.14754 -0.28621,-0.30144 -0.418502,-0.46172 -0.132292,-0.16029 -0.255681,-0.32819 -0.371437,-0.5012 -0.115752,-0.17297 -0.221332,-0.35107 -0.320551,-0.53425 -0.09795,-0.18317 -0.185718,-0.37142 -0.265859,-0.56352 -0.08014,-0.19207 -0.150097,-0.3867 -0.209885,-0.58642 -0.06106,-0.19844 -0.110666,-0.4007 -0.151372,-0.60423 -0.04071,-0.20353 -0.07123,-0.40958 -0.09159,-0.61693 -0.02035,-0.20606 -0.03051,-0.4147 -0.03051,-0.62203 0,-0.20734 0.01016,-0.41595 0.03051,-0.62201 0.02035,-0.20737 0.05088,-0.41344 0.09159,-0.61697 0.04071,-0.20352 0.09031,-0.40578 0.151372,-0.60419 0.05979,-0.19972 0.129748,-0.39435 0.209885,-0.58642 0.08014,-0.1921 0.167911,-0.38035 0.265859,-0.56352 0.09922,-0.18317 0.204799,-0.36127 0.320551,-0.53425 0.115756,-0.17301 0.239145,-0.34091 0.371437,-0.50119 0.132292,-0.16029 0.272218,-0.31418 0.418502,-0.46174 0.147556,-0.14631 0.301474,-0.2862 0.461748,-0.41851 0.160278,-0.13227 0.328189,-0.2557 0.501186,-0.37142 0.172997,-0.11577 0.351081,-0.22135 0.534255,-0.32057 0.183173,-0.098 0.371438,-0.18571 0.563514,-0.26586 0.192077,-0.0801 0.3867,-0.15008 0.58641,-0.20987 0.198439,-0.061 0.400693,-0.11068 0.604219,-0.15139 0.203526,-0.0407 0.409595,-0.0713 0.616938,-0.0916 0.206069,-0.0202 0.414685,-0.0306 0.622028,-0.0306 0.207343,0 0.415956,0.0101 0.622026,0.0306 0.207342,0.0202 0.413415,0.0509 0.616941,0.0916 0.203526,0.0407 0.40578,0.0904 0.604216,0.15139 0.199713,0.0598 0.394333,0.12974 0.586413,0.20987 0.192076,0.0801 0.380337,0.16791 0.563511,0.26586 0.183173,0.0992 0.36126,0.2048 0.534258,0.32057 0.172997,0.11572 0.340905,0.23915 0.501183,0.37142 0.160277,0.13231 0.314195,0.2722 0.46175,0.41851 0.146285,0.14756 0.28621,0.30145 0.418502,0.46174 0.132292,0.16028 0.255678,0.32818 0.371435,0.50119 0.115756,0.17298 0.221335,0.35108 0.320554,0.53425 0.09795,0.18317 0.185718,0.37142 0.265855,0.56352 0.08014,0.19207 0.1501,0.3867 0.209886,0.58642 0.06106,0.19841 0.110669,0.40067 0.151375,0.60419 0.04071,0.20353 0.07123,0.4096 0.09159,0.61697 0.02034,0.20606 0.03051,0.41467 0.03051,0.62201 z m 0,0"
       style="fill:#ffffff;fill-opacity:1;fill-rule:nonzero;stroke:none;stroke-width:0.32564202" />
    <path
       id="path10901"
       d="m 13.166117,286.06574 c -0.227106,0.24914 -0.42677,0.51764 -0.601682,0.80573 -0.173085,0.28803 -0.316798,0.59078 -0.431856,0.90767 -0.115037,0.31681 -0.197304,0.64138 -0.246752,0.97503 -0.05036,0.33278 -0.06813,0.66757 -0.05263,1.0036 0.01553,0.33603 0.06402,0.66775 0.144823,0.99448 0.07995,0.32766 0.191757,0.64327 0.335489,0.9482 0.143731,0.3049 0.314723,0.59312 0.513599,0.86399 0.200694,0.27078 0.42423,0.51979 0.67331,0.74693 l 6.911288,-7.57994 c -0.249123,-0.2271 -0.517312,-0.42712 -0.805411,-0.60201 -0.288089,-0.17299 -0.590767,-0.31686 -0.907626,-0.43187 -0.316859,-0.11502 -0.641421,-0.19734 -0.975073,-0.24677 -0.332771,-0.0505 -0.667547,-0.0681 -1.003587,-0.0525 -0.336037,0.0153 -0.667748,0.064 -0.994484,0.14481 -0.327658,0.0799 -0.643283,0.19174 -0.948201,0.33547 -0.304912,0.14375 -0.593142,0.31471 -0.863997,0.51361 -0.270782,0.20069 -0.520113,0.42458 -0.747222,0.67366 z"
       style="fill:#aeb328;fill-opacity:1;fill-rule:nonzero;stroke:none;stroke-width:0.32564202"
       inkscape:connector-curvature="0" />
    <path
       inkscape:connector-curvature="0"
       style="fill:#00a6e3;fill-opacity:1;fill-rule:nonzero;stroke:none;stroke-width:0.32564202"
       d="m 20.746029,292.97703 c -0.227093,0.24912 -0.476122,0.47261 -0.746899,0.6733 -0.270857,0.1989 -0.559086,0.36986 -0.864007,0.51363 -0.304928,0.14374 -0.620537,0.25554 -0.948211,0.33549 -0.326717,0.0809 -0.658428,0.1293 -0.994462,0.14477 -0.336056,0.0156 -0.670807,-0.004 -1.003603,-0.0525 -0.333626,-0.0496 -0.658196,-0.13175 -0.975059,-0.24681 -0.316853,-0.11501 -0.619616,-0.25872 -0.90764,-0.43183 -0.288131,-0.17483 -0.556627,-0.37455 -0.805733,-0.60166 l 6.911286,-7.57993 c 0.249127,0.2271 0.472953,0.47576 0.67365,0.74653 0.198873,0.27087 0.369852,0.55913 0.513583,0.86403 0.143732,0.30493 0.255538,0.62054 0.33549,0.94821 0.08081,0.32671 0.129315,0.65841 0.144822,0.99447 0.0155,0.33603 -0.0023,0.67079 -0.05263,1.0036 -0.04944,0.33362 -0.131699,0.65822 -0.246749,0.97504 -0.115036,0.31685 -0.258746,0.6196 -0.431844,0.90763 -0.174896,0.28809 -0.374879,0.557 -0.602005,0.80608 z"
       id="path10903" />
    <path
       style="fill:none;stroke:#00a6e3;stroke-width:0.52899998;stroke-linecap:round;stroke-linejoin:round;stroke-miterlimit:4;stroke-dasharray:0.529, 1.058;stroke-dashoffset:0;stroke-opacity:1"
       d="m 21.550848,285.21429 h 9.229537 c 1.61109,0.21403 2.773556,0.92389 2.842448,2.84244 v 8.74305 m -33.36723431,-0.0113 c 0.28696469,-0.56203 0.80696841,-1.04541 1.73221841,-1.23612 h 9.7542009 l 1.102417,-1.19182"
       id="path11932"
       inkscape:connector-curvature="0"
       sodipodi:nodetypes="cccccccc" />
    <g
       style="fill:#ffffff;fill-opacity:1"
       transform="matrix(0.4020257,0,0,0.4020257,13.314284,293.0915)"
       id="use10905">
      <path
         style="fill:#ffffff;fill-opacity:1;stroke:none;stroke-width:1.46880579"
         d="m 48.072266,15.154297 c -3.036639,-0.03819 -6.001742,1.800119 -7.392578,4.507812 -3.1718,0.300536 -5.849717,3.233023 -5.896485,6.41211 -0.192803,3.401188 2.700152,6.596987 6.101563,6.74414 4.849166,0.03911 9.699047,0.0066 14.548828,0.01758 2.881604,0.207603 5.626425,-2.23072 5.771484,-5.111329 0.313548,-2.936098 -2.167923,-5.762982 -5.103516,-5.904297 -0.103991,-0.560079 -0.271137,-1.109945 -0.501953,-1.630859 -1.154427,-2.470944 -3.550491,-4.365325 -6.226562,-4.902344 -0.432351,-0.08503 -0.866976,-0.127356 -1.300781,-0.132812 z m 3.277413,5.354854 3.195312,3.203125 -3.195312,3.203125 v -2.402344 h -5.615235 v -1.601562 h 5.615235 z m -9.003976,3.699833 v 2.402344 h 5.615235 v 1.601563 h -5.615235 v 2.404297 l -3.195312,-3.205079 z"
         transform="matrix(0.68082521,0,0,0.68082521,-23.679609,-25.339795)"
         id="path3833"
         inkscape:connector-curvature="0"
         sodipodi:nodetypes="sccccccccscccccccccccccccc" />
    </g>
  </g>
</svg>
